<?xml version="1.0" encoding="utf-8"?>
<!-- Generator: Adobe Illustrator 22.0.0, SVG Export Plug-In . SVG Version: 6.00 Build 0)  -->
<svg version="1.1" id="图层_1" xmlns="http://www.w3.org/2000/svg" xmlns:xlink="http://www.w3.org/1999/xlink" x="0px" y="0px"
	 viewBox="0 0 1920 1300" enable-background="new 0 0 1920 1300" xml:space="preserve">
<g>
	<g>
		<g>
			<path fill="#E6F5FF" d="M1454.1,399.4c0-20.1-19.1-36.4-42.7-36.4s-42.7,16.3-42.7,36.4c0,4.5,1,8.8,2.7,12.7c26.7,0,53.3,0,80,0
				C1453.1,408.2,1454.1,403.9,1454.1,399.4z"/>
			<path fill="#E6F5FF" d="M1451.2,412.6c0.1-0.2,0.2-0.3,0.2-0.5c-26.7,0-53.3,0-80,0c0.1,0.2,0.2,0.4,0.3,0.6
				C1398.2,412.6,1424.7,412.6,1451.2,412.6z"/>
			<ellipse fill="#E6F5FF" cx="1459.7" cy="363" rx="42.7" ry="36.4"/>
			<path fill="#E6F5FF" d="M1496.7,399.4c0-20.1-19.1-36.4-42.7-36.4c-23.6,0-42.7,16.3-42.7,36.4c0,4.5,1,8.8,2.7,12.7
				c26.7,0,53.3,0,80,0C1495.8,408.2,1496.7,403.9,1496.7,399.4z"/>
			<path fill="#E6F5FF" d="M1493.7,412.7c0.1-0.2,0.2-0.4,0.3-0.6c-26.7,0-53.3,0-80,0c0.1,0.2,0.2,0.3,0.2,0.5
				C1440.8,412.6,1467.3,412.6,1493.7,412.7z"/>
			<path fill="#E6F5FF" d="M1539.4,399.4c0-20.1-19.1-36.4-42.7-36.4c-23.6,0-42.7,16.3-42.7,36.4c0,4.5,1,8.8,2.7,12.7
				c26.7,0,53.3,0,80,0C1538.4,408.2,1539.4,403.9,1539.4,399.4z"/>
			<path fill="#E6F5FF" d="M1536.7,412.1c-26.7,0-53.3,0-80,0c0.1,0.2,0.2,0.3,0.2,0.5c26.4,0.1,52.9,0.2,79.3,0.3
				C1536.4,412.7,1536.6,412.4,1536.7,412.1z"/>
			<ellipse fill="#E6F5FF" cx="1539.1" cy="345" rx="42.7" ry="36.4"/>
			<path fill="#E6F5FF" d="M1594.8,381.4c0-20.1-19.1-36.4-42.7-36.4c-23.6,0-42.7,16.3-42.7,36.4c0,12.9,7.9,24.3,19.8,30.7
				c15.2,0,30.5,0,45.7,0C1586.9,405.7,1594.8,394.3,1594.8,381.4z"/>
			<path fill="#E6F5FF" d="M1575,412.1c-15.2,0-30.5,0-45.7,0c0.5,0.3,1,0.5,1.6,0.8c14,0.1,28.1,0.2,42.1,0.3
				C1573.6,412.8,1574.3,412.5,1575,412.1z"/>
			<path fill="#E6F5FF" d="M1655.1,412.1c-26.7,0-53.3,0-80,0c0.2,0.4,0.3,0.7,0.5,1.1c26.2,0.2,52.4,0.4,78.7,0.5
				C1654.6,413.2,1654.9,412.7,1655.1,412.1z"/>
			<path fill="#E6F5FF" d="M1657.8,399.4c0-20.1-19.1-36.4-42.7-36.4c-23.6,0-42.7,16.3-42.7,36.4c0,4.5,1,8.8,2.7,12.7
				c26.7,0,53.3,0,80,0C1656.8,408.2,1657.8,403.9,1657.8,399.4z"/>
			<path fill="#E6F5FF" d="M1613.2,381.4c0-20.1-19.1-36.4-42.7-36.4s-42.7,16.3-42.7,36.4c0,12.9,7.9,24.3,19.8,30.7
				c15.2,0,30.5,0,45.7,0C1605.3,405.7,1613.2,394.3,1613.2,381.4z"/>
			<path fill="#E6F5FF" d="M1593.5,412.1c-15.2,0-30.5,0-45.7,0c0.6,0.3,1.2,0.6,1.8,0.9c13.9,0.1,27.8,0.2,41.6,0.3
				C1591.9,412.9,1592.7,412.5,1593.5,412.1z"/>
			<path fill="#E6F5FF" d="M1558.5,381.4c-21.3,0-38.9,13.3-42.1,30.7c28.1,0,56.2,0,84.3,0C1597.5,394.7,1579.8,381.4,1558.5,381.4
				z"/>
		</g>
		<g>
			<path fill="#E6F5FF" d="M955,384.7c0-25-23.7-45.2-52.9-45.2c-29.2,0-52.9,20.2-52.9,45.2c0,5.6,1.2,10.9,3.3,15.8
				c33.1,0,66.2,0,99.2,0C953.8,395.6,955,390.3,955,384.7z"/>
			<path fill="#E6F5FF" d="M951.4,401.1c0.1-0.2,0.2-0.4,0.3-0.6c-33.1,0-66.2,0-99.2,0c0.1,0.2,0.2,0.5,0.3,0.7
				C885.7,401.1,918.5,401.1,951.4,401.1z"/>
			<ellipse fill="#E6F5FF" cx="962" cy="339.5" rx="52.9" ry="45.2"/>
			<path fill="#E6F5FF" d="M1008,384.7c0-25-23.7-45.2-52.9-45.2c-29.2,0-52.9,20.2-52.9,45.2c0,5.6,1.2,10.9,3.3,15.8
				c33.1,0,66.2,0,99.2,0C1006.8,395.6,1008,390.3,1008,384.7z"/>
			<path fill="#E6F5FF" d="M1004.3,401.3c0.1-0.3,0.3-0.5,0.4-0.8c-33.1,0-66.2,0-99.2,0c0.1,0.2,0.2,0.4,0.3,0.6
				C938.5,401.1,971.4,401.2,1004.3,401.3z"/>
			<path fill="#E6F5FF" d="M1060.9,384.7c0-25-23.7-45.2-52.9-45.2c-29.2,0-52.9,20.2-52.9,45.2c0,5.6,1.2,10.9,3.3,15.8
				c33.1,0,66.2,0,99.2,0C1059.7,395.6,1060.9,390.3,1060.9,384.7z"/>
			<path fill="#E6F5FF" d="M1057.6,400.5c-33.1,0-66.2,0-99.2,0c0.1,0.2,0.2,0.4,0.3,0.6c32.8,0.1,65.6,0.2,98.4,0.4
				C1057.2,401.2,1057.4,400.9,1057.6,400.5z"/>
			<ellipse fill="#E6F5FF" cx="1060.6" cy="317.2" rx="52.9" ry="45.2"/>
			<path fill="#E6F5FF" d="M1129.7,362.4c0-25-23.7-45.2-52.9-45.2s-52.9,20.2-52.9,45.2c0,16,9.8,30.1,24.6,38.2
				c18.9,0,37.9,0,56.8,0C1119.9,392.5,1129.7,378.4,1129.7,362.4z"/>
			<path fill="#E6F5FF" d="M1105.1,400.5c-18.9,0-37.9,0-56.8,0c0.6,0.3,1.3,0.7,2,1c17.4,0.1,34.8,0.2,52.3,0.3
				C1103.4,401.4,1104.3,401,1105.1,400.5z"/>
			<path fill="#E6F5FF" d="M1204.5,400.5c-33.1,0-66.2,0-99.2,0c0.2,0.4,0.4,0.9,0.6,1.3c32.5,0.2,65.1,0.4,97.6,0.7
				C1203.9,401.9,1204.2,401.2,1204.5,400.5z"/>
			<path fill="#E6F5FF" d="M1207.8,384.7c0-25-23.7-45.2-52.9-45.2c-29.2,0-52.9,20.2-52.9,45.2c0,5.6,1.2,10.9,3.3,15.8
				c33.1,0,66.2,0,99.2,0C1206.7,395.6,1207.8,390.3,1207.8,384.7z"/>
			<path fill="#E6F5FF" d="M1152.6,362.4c0-25-23.7-45.2-52.9-45.2s-52.9,20.2-52.9,45.2c0,16,9.8,30.1,24.6,38.2
				c18.9,0,37.9,0,56.8,0C1142.8,392.5,1152.6,378.4,1152.6,362.4z"/>
			<path fill="#E6F5FF" d="M1128,400.5c-18.9,0-37.9,0-56.8,0c0.7,0.4,1.5,0.8,2.2,1.1c17.2,0.1,34.5,0.2,51.7,0.3
				C1126.1,401.5,1127.1,401,1128,400.5z"/>
			<path fill="#E6F5FF" d="M1084.7,362.4c-26.4,0-48.3,16.5-52.3,38.2c34.9,0,69.7,0,104.6,0C1133,378.9,1111.1,362.4,1084.7,362.4z
				"/>
		</g>
		<g>
			<path fill="#E6F5FF" d="M369.2,446.2c0-26.3-24.9-47.5-55.7-47.5s-55.7,21.3-55.7,47.5c0,5.8,1.2,11.4,3.5,16.6
				c34.8,0,69.6,0,104.3,0C367.9,457.7,369.2,452.1,369.2,446.2z"/>
			<path fill="#E6F5FF" d="M365.4,463.5c0.1-0.2,0.2-0.4,0.3-0.6c-34.8,0-69.6,0-104.3,0c0.1,0.2,0.2,0.5,0.4,0.7
				C296.3,463.4,330.8,463.4,365.4,463.5z"/>
			<ellipse fill="#E6F5FF" cx="376.5" cy="398.7" rx="55.7" ry="47.5"/>
			<path fill="#E6F5FF" d="M424.8,446.2c0-26.3-24.9-47.5-55.7-47.5c-30.7,0-55.7,21.3-55.7,47.5c0,5.8,1.2,11.4,3.5,16.6
				c34.8,0,69.6,0,104.3,0C423.6,457.7,424.8,452.1,424.8,446.2z"/>
			<path fill="#E6F5FF" d="M420.9,463.6c0.1-0.3,0.3-0.5,0.4-0.8c-34.8,0-69.6,0-104.3,0c0.1,0.2,0.2,0.4,0.3,0.6
				C351.8,463.4,386.4,463.5,420.9,463.6z"/>
			<path fill="#E6F5FF" d="M480.5,446.2c0-26.3-24.9-47.5-55.7-47.5c-30.7,0-55.7,21.3-55.7,47.5c0,5.8,1.2,11.4,3.5,16.6
				c34.8,0,69.6,0,104.3,0C479.3,457.7,480.5,452.1,480.5,446.2z"/>
			<path fill="#E6F5FF" d="M477,462.8c-34.8,0-69.6,0-104.3,0c0.1,0.2,0.2,0.4,0.3,0.6c34.5,0.1,69,0.2,103.5,0.4
				C476.6,463.6,476.8,463.2,477,462.8z"/>
			<ellipse fill="#E6F5FF" cx="480.1" cy="375.2" rx="55.7" ry="47.5"/>
			<path fill="#E6F5FF" d="M552.8,422.7c0-26.3-24.9-47.5-55.7-47.5s-55.7,21.3-55.7,47.5c0,16.9,10.3,31.7,25.8,40.1
				c19.9,0,39.8,0,59.7,0C542.5,454.4,552.8,439.6,552.8,422.7z"/>
			<path fill="#E6F5FF" d="M527,462.8c-19.9,0-39.8,0-59.7,0c0.7,0.4,1.4,0.7,2.1,1c18.3,0.1,36.6,0.2,54.9,0.3
				C525.2,463.8,526.1,463.3,527,462.8z"/>
			<path fill="#E6F5FF" d="M631.5,462.8c-34.8,0-69.6,0-104.3,0c0.2,0.5,0.5,0.9,0.7,1.4c34.2,0.2,68.4,0.5,102.6,0.7
				C630.8,464.2,631.2,463.6,631.5,462.8z"/>
			<path fill="#E6F5FF" d="M635,446.2c0-26.3-24.9-47.5-55.7-47.5c-30.7,0-55.7,21.3-55.7,47.5c0,5.8,1.2,11.4,3.5,16.6
				c34.8,0,69.6,0,104.3,0C633.7,457.7,635,452.1,635,446.2z"/>
			<path fill="#E6F5FF" d="M576.9,422.7c0-26.3-24.9-47.5-55.7-47.5s-55.7,21.3-55.7,47.5c0,16.9,10.3,31.7,25.8,40.1
				c19.9,0,39.8,0,59.7,0C566.6,454.4,576.9,439.6,576.9,422.7z"/>
			<path fill="#E6F5FF" d="M551.1,462.8c-19.9,0-39.8,0-59.7,0c0.8,0.4,1.5,0.8,2.3,1.2c18.1,0.1,36.2,0.2,54.3,0.3
				C549.1,463.9,550.1,463.4,551.1,462.8z"/>
			<path fill="#E6F5FF" d="M505.5,422.7c-27.8,0-50.8,17.4-55,40.1c36.7,0,73.3,0,110,0C556.3,440.1,533.3,422.7,505.5,422.7z"/>
		</g>
	</g>
	<g>
		<g>
			<path fill="#F4AB70" d="M954.4,717.1L743.1,348.6l-57,19.2V416c0,9.6-7.7,17.4-17.3,17.4c-9.5,0-17.3-7.8-17.3-17.4v-16.1
				c0-9.6-7.7-17.4-17.3-17.4c-9.6,0-17.3,7.8-17.3,17.4v61.7c0,9.6-7.7,17.4-17.3,17.4c-9.6,0-17.3-7.8-17.3-17.4v-103l-70.7-22.6
				L293.1,717.1H954.4z"/>
			<path fill="#FFF8B6" d="M582.3,461.5c0,9.6,7.7,17.4,17.3,17.4c9.5,0,17.3-7.8,17.3-17.4v-61.7c0-9.6,7.7-17.4,17.3-17.4
				c9.5,0,17.3,7.8,17.3,17.4V416c0,9.6,7.7,17.4,17.3,17.4c9.6,0,17.3-7.8,17.3-17.4v-48.2l57-19.2L623.8,140.4L511.6,335.9
				l70.7,22.6V461.5z"/>
		</g>
		<g>
			<polygon fill="#F4AB70" points="388.5,493.7 371.3,478.8 235.8,715.9 344.4,715.9 395.9,491.7 			"/>
			<polygon fill="#CC773E" points="490.9,499.3 481,505.9 464.8,523.5 424.9,483.9 395.9,491.7 344.4,715.9 614.7,715.9 			"/>
			<polygon fill="#FFFFFF" points="425.4,485.6 466.1,524.5 481.7,508.3 492.2,501.6 425.1,388.6 370.1,481 387.4,495.4 			"/>
		</g>
		<g>
			<polygon fill="#C16B30" points="852.5,476.3 835.4,461.5 699.9,698.6 808.4,698.6 859.9,474.3 			"/>
			<polygon fill="#CC773E" points="954.9,482 945.1,488.6 928.9,506.1 889,466.5 859.9,474.3 808.4,698.6 1078.7,698.6 			"/>
			<polygon fill="#FFF8B6" points="889.6,464.2 928.8,503.1 943.8,486.9 953.9,480.2 889.3,367.1 836.4,459.6 853.1,474 			"/>
		</g>
	</g>
	<g>
		<g>
			<g>
				<g>
					<g>
						<g>
							<rect x="723.2" y="449" fill="#545454" width="10.7" height="1.6"/>
						</g>
						<g>
							<rect x="723.2" y="454.9" fill="#545454" width="10.7" height="1.6"/>
						</g>
						<g>
							<rect x="723.2" y="460.8" fill="#545454" width="10.7" height="1.6"/>
						</g>
						<g>
							<rect x="723.2" y="466.7" fill="#545454" width="10.7" height="1.6"/>
						</g>
						<g>
							<rect x="723.2" y="472.6" fill="#545454" width="10.7" height="1.6"/>
						</g>
						<g>
							<rect x="723.2" y="478.5" fill="#545454" width="10.7" height="1.6"/>
						</g>
						<g>
							<rect x="723.2" y="484.4" fill="#545454" width="10.7" height="1.6"/>
						</g>
						<g>
							<rect x="723.2" y="490.3" fill="#545454" width="10.7" height="1.6"/>
						</g>
						<g>
							<rect x="723.2" y="496.2" fill="#545454" width="10.7" height="1.6"/>
						</g>
						<g>
							<rect x="723.2" y="502.1" fill="#545454" width="10.7" height="1.6"/>
						</g>
						<g>
							<rect x="723.2" y="508" fill="#545454" width="10.7" height="1.6"/>
						</g>
						<g>
							<rect x="723.2" y="513.9" fill="#545454" width="10.7" height="1.6"/>
						</g>
						<g>
							<rect x="723.2" y="519.8" fill="#545454" width="10.7" height="1.6"/>
						</g>
						<g>
							<rect x="723.2" y="525.7" fill="#545454" width="10.7" height="1.6"/>
						</g>
						<g>
							<rect x="723.2" y="531.6" fill="#545454" width="10.7" height="1.6"/>
						</g>
						<g>
							<rect x="723.2" y="537.5" fill="#545454" width="10.7" height="1.6"/>
						</g>
						<g>
							<rect x="723.2" y="543.4" fill="#545454" width="10.7" height="1.6"/>
						</g>
						<g>
							<rect x="723.2" y="549.3" fill="#545454" width="10.7" height="1.6"/>
						</g>
						<g>
							<rect x="723.2" y="555.2" fill="#545454" width="10.7" height="1.6"/>
						</g>
						<g>
							<rect x="723.2" y="561.1" fill="#545454" width="10.7" height="1.6"/>
						</g>
						<g>
							<rect x="723.2" y="567" fill="#545454" width="10.7" height="1.6"/>
						</g>
						<g>
							<rect x="723.2" y="572.9" fill="#545454" width="10.7" height="1.6"/>
						</g>
						<g>
							<rect x="723.2" y="578.8" fill="#545454" width="10.7" height="1.6"/>
						</g>
						<g>
							<rect x="723.2" y="584.7" fill="#545454" width="10.7" height="1.6"/>
						</g>
						<g>
							<rect x="723.2" y="590.6" fill="#545454" width="10.7" height="1.6"/>
						</g>
						<g>
							<rect x="723.2" y="596.5" fill="#545454" width="10.7" height="1.6"/>
						</g>
						<g>
							<rect x="723.2" y="602.4" fill="#545454" width="10.7" height="1.6"/>
						</g>
						<g>
							<rect x="723.2" y="608.3" fill="#545454" width="10.7" height="1.6"/>
						</g>
						<g>
							<rect x="723.2" y="614.2" fill="#545454" width="10.7" height="1.6"/>
						</g>
						<g>
							<rect x="723.2" y="620.1" fill="#545454" width="10.7" height="1.6"/>
						</g>
						<g>
							<rect x="723.2" y="626" fill="#545454" width="10.7" height="1.6"/>
						</g>
						<g>
							<rect x="723.2" y="631.9" fill="#545454" width="10.7" height="1.6"/>
						</g>
						<g>
							<rect x="723.2" y="637.8" fill="#545454" width="10.7" height="1.6"/>
						</g>
						<g>
							<rect x="723.2" y="643.7" fill="#545454" width="10.7" height="1.6"/>
						</g>
						<g>
							<rect x="723.2" y="649.6" fill="#545454" width="10.7" height="1.6"/>
						</g>
						<g>
							<rect x="733" y="449.8" fill="#545454" width="1.6" height="203.6"/>
						</g>
						<g>
							<path fill="#545454" d="M734.7,449.8H733c0-3.8-5-7.7-9.8-7.7v-1.6C729,440.4,734.7,445.1,734.7,449.8z"/>
						</g>
					</g>
					<rect x="635" y="463.8" fill="#CABEAE" width="88.6" height="189.5"/>
					<polygon opacity="0.2" fill="#706F6F" points="723.6,463.8 723.6,556.2 635,467.6 635,463.8 					"/>
					<rect x="707.6" y="463.8" opacity="0.2" fill="#706F6F" width="16" height="189.5"/>
					<path fill="#DAD2C5" d="M727.4,463.8h-96.4c-1.4,0-2.6-1.2-2.5-2.6c1.4-26.8,23.5-48.1,50.7-48.1c27.1,0,49.3,21.3,50.7,48.1
						C730,462.6,728.9,463.8,727.4,463.8z"/>
					<g>
						<path fill="#737980" d="M725.9,473.1c0-1.1-0.9-1.9-1.9-1.9h-89.4c-1.1,0-1.9,0.9-1.9,1.9l0,0c0,1.1,0.9,1.9,1.9,1.9H724
							C725,475,725.9,474.1,725.9,473.1L725.9,473.1z"/>
						<rect x="635" y="475" opacity="0.2" fill="#706F6F" width="88.6" height="4"/>
					</g>
					<g>
						<path fill="#737980" d="M725.9,491.7c0-1.1-0.9-1.9-1.9-1.9h-89.4c-1.1,0-1.9,0.9-1.9,1.9l0,0c0,1.1,0.9,1.9,1.9,1.9H724
							C725,493.6,725.9,492.8,725.9,491.7L725.9,491.7z"/>
						<rect x="635" y="493.6" opacity="0.2" fill="#706F6F" width="88.6" height="4"/>
					</g>
					<g>
						<path fill="#737980" d="M725.9,510.4c0-1.1-0.9-1.9-1.9-1.9h-89.4c-1.1,0-1.9,0.9-1.9,1.9l0,0c0,1.1,0.9,1.9,1.9,1.9H724
							C725,512.3,725.9,511.4,725.9,510.4L725.9,510.4z"/>
						<rect x="635" y="512.3" opacity="0.2" fill="#706F6F" width="88.6" height="4"/>
					</g>
					<g>
						<path fill="#737980" d="M725.9,529c0-1.1-0.9-1.9-1.9-1.9h-89.4c-1.1,0-1.9,0.9-1.9,1.9l0,0c0,1.1,0.9,1.9,1.9,1.9H724
							C725,530.9,725.9,530.1,725.9,529L725.9,529z"/>
						<rect x="635" y="530.9" opacity="0.2" fill="#706F6F" width="88.6" height="4"/>
					</g>
					<g>
						<path fill="#737980" d="M725.9,547.7c0-1.1-0.9-1.9-1.9-1.9h-89.4c-1.1,0-1.9,0.9-1.9,1.9l0,0c0,1.1,0.9,1.9,1.9,1.9H724
							C725,549.6,725.9,548.7,725.9,547.7L725.9,547.7z"/>
						<rect x="635" y="549.6" opacity="0.2" fill="#706F6F" width="88.6" height="4"/>
					</g>
					<g>
						<path fill="#737980" d="M725.9,566.3c0-1.1-0.9-1.9-1.9-1.9h-89.4c-1.1,0-1.9,0.9-1.9,1.9l0,0c0,1.1,0.9,1.9,1.9,1.9H724
							C725,568.2,725.9,567.4,725.9,566.3L725.9,566.3z"/>
						<rect x="635" y="568.2" opacity="0.2" fill="#706F6F" width="88.6" height="4"/>
					</g>
					<g>
						<path fill="#737980" d="M725.9,585c0-1.1-0.9-1.9-1.9-1.9h-89.4c-1.1,0-1.9,0.9-1.9,1.9l0,0c0,1.1,0.9,1.9,1.9,1.9H724
							C725,586.9,725.9,586,725.9,585L725.9,585z"/>
						<rect x="635" y="586.9" opacity="0.2" fill="#706F6F" width="88.6" height="4"/>
					</g>
					<g>
						<path fill="#737980" d="M725.9,603.6c0-1.1-0.9-1.9-1.9-1.9h-89.4c-1.1,0-1.9,0.9-1.9,1.9l0,0c0,1.1,0.9,1.9,1.9,1.9H724
							C725,605.5,725.9,604.7,725.9,603.6L725.9,603.6z"/>
						<rect x="635" y="605.5" opacity="0.2" fill="#706F6F" width="88.6" height="4"/>
					</g>
					<g>
						<path fill="#737980" d="M725.9,622.3c0-1.1-0.9-1.9-1.9-1.9h-89.4c-1.1,0-1.9,0.9-1.9,1.9l0,0c0,1.1,0.9,1.9,1.9,1.9H724
							C725,624.2,725.9,623.3,725.9,622.3L725.9,622.3z"/>
						<rect x="635" y="624.2" opacity="0.2" fill="#706F6F" width="88.6" height="4"/>
					</g>
					<g>
						<path fill="#737980" d="M725.9,640.9c0-1.1-0.9-1.9-1.9-1.9h-89.4c-1.1,0-1.9,0.9-1.9,1.9l0,0c0,1.1,0.9,1.9,1.9,1.9H724
							C725,642.8,725.9,642,725.9,640.9L725.9,640.9z"/>
						<rect x="635" y="642.8" opacity="0.2" fill="#706F6F" width="88.6" height="4"/>
					</g>
					<path opacity="0.2" fill="#706F6F" d="M727.1,463.8h-20.3c0.8,0,1.5-1.2,1.5-2.7c-0.8-26.6-13.4-47.8-29-48.1
						c27,0.2,48.9,21.4,50.3,48.1C729.6,462.6,728.5,463.8,727.1,463.8z"/>
					<path opacity="0.33" fill="#737980" d="M678.8,413.1c-18.1,0.3-32.9,21.5-33.8,48.1c-0.1,1.4,0.7,2.6,1.7,2.6h-15.7
						c-1.4,0-2.6-1.2-2.5-2.6C629.9,434.6,651.9,413.3,678.8,413.1z"/>
				</g>
				<path opacity="0.34" fill="#CABEAE" d="M635,463.8v7.3h-0.4c-1.1,0-1.9,0.9-1.9,1.9c0,0.5,0.2,1,0.6,1.4
					c0.3,0.3,0.8,0.6,1.4,0.6h0.4v14.8h-0.4c-1.1,0-1.9,0.9-1.9,1.9c0,0.5,0.2,1,0.6,1.4c0.3,0.3,0.8,0.6,1.4,0.6h0.4v14.8h-0.4
					c-1.1,0-1.9,0.9-1.9,1.9c0,0.5,0.2,1,0.6,1.4c0.3,0.3,0.8,0.6,1.4,0.6h0.4v14.8h-0.4c-1.1,0-1.9,0.9-1.9,1.9
					c0,0.5,0.2,1,0.6,1.4c0.3,0.3,0.8,0.6,1.4,0.6h0.4v14.8h-0.4c-1.1,0-1.9,0.9-1.9,1.9c0,0.5,0.2,1,0.6,1.4
					c0.3,0.3,0.8,0.6,1.4,0.6h0.4v14.8h-0.4c-1.1,0-1.9,0.9-1.9,1.9c0,0.5,0.2,1,0.6,1.4c0.3,0.3,0.8,0.6,1.4,0.6h0.4v14.8h-0.4
					c-1.1,0-1.9,0.9-1.9,1.9c0,0.5,0.2,1,0.6,1.4c0.3,0.3,0.8,0.6,1.4,0.6h0.4v14.8h-0.4c-1.1,0-1.9,0.9-1.9,1.9
					c0,0.5,0.2,1,0.6,1.4c0.3,0.3,0.8,0.6,1.4,0.6h0.4v14.8h-0.4c-1.1,0-1.9,0.9-1.9,1.9c0,0.5,0.2,1,0.6,1.4
					c0.3,0.3,0.8,0.6,1.4,0.6h0.4V639h-0.4c-1.1,0-1.9,0.9-1.9,1.9c0,0.5,0.2,1,0.6,1.4c0.3,0.3,0.8,0.6,1.4,0.6h0.4v10.5h37.7
					v-10.5V639v-14.8v-3.8v-14.8v-3.8v-14.8v-3.8v-14.8v-3.8v-14.8v-3.8v-14.8v-3.8v-14.8v-3.8v-14.8v-3.8V475v-3.8v-7.3H635z"/>
			</g>
			<g>
				<g>
					<rect x="575.7" y="503.7" fill="#CABEAE" width="70" height="149.7"/>
					<polygon opacity="0.2" fill="#706F6F" points="645.7,503.7 645.7,576.6 575.7,506.6 575.7,503.7 					"/>
					<rect x="633.1" y="503.7" opacity="0.2" fill="#706F6F" width="12.6" height="149.7"/>
					<path fill="#DAD2C5" d="M648.8,503.7h-76.1c-1.1,0-2-0.9-2-2.1c1.1-21.2,18.6-38,40-38c21.4,0,38.9,16.8,40,38
						C650.8,502.7,649.9,503.7,648.8,503.7z"/>
					<g>
						<path fill="#737980" d="M647.5,511c0-0.8-0.7-1.5-1.5-1.5h-70.6c-0.8,0-1.5,0.7-1.5,1.5l0,0c0,0.8,0.7,1.5,1.5,1.5H646
							C646.9,512.5,647.5,511.8,647.5,511L647.5,511z"/>
						<rect x="575.7" y="512.5" opacity="0.2" fill="#706F6F" width="70" height="3.2"/>
					</g>
					<g>
						<path fill="#737980" d="M647.5,525.7c0-0.8-0.7-1.5-1.5-1.5h-70.6c-0.8,0-1.5,0.7-1.5,1.5l0,0c0,0.8,0.7,1.5,1.5,1.5H646
							C646.9,527.2,647.5,526.5,647.5,525.7L647.5,525.7z"/>
						<rect x="575.7" y="527.2" opacity="0.2" fill="#706F6F" width="70" height="3.2"/>
					</g>
					<g>
						<path fill="#737980" d="M647.5,540.4c0-0.8-0.7-1.5-1.5-1.5h-70.6c-0.8,0-1.5,0.7-1.5,1.5l0,0c0,0.8,0.7,1.5,1.5,1.5H646
							C646.9,541.9,647.5,541.3,647.5,540.4L647.5,540.4z"/>
						<rect x="575.7" y="541.9" opacity="0.2" fill="#706F6F" width="70" height="3.2"/>
					</g>
					<g>
						<path fill="#737980" d="M647.5,555.2c0-0.8-0.7-1.5-1.5-1.5h-70.6c-0.8,0-1.5,0.7-1.5,1.5l0,0c0,0.8,0.7,1.5,1.5,1.5H646
							C646.9,556.7,647.5,556,647.5,555.2L647.5,555.2z"/>
						<rect x="575.7" y="556.7" opacity="0.2" fill="#706F6F" width="70" height="3.2"/>
					</g>
					<g>
						<path fill="#737980" d="M647.5,569.9c0-0.8-0.7-1.5-1.5-1.5h-70.6c-0.8,0-1.5,0.7-1.5,1.5l0,0c0,0.8,0.7,1.5,1.5,1.5H646
							C646.9,571.4,647.5,570.7,647.5,569.9L647.5,569.9z"/>
						<rect x="575.7" y="571.4" opacity="0.2" fill="#706F6F" width="70" height="3.2"/>
					</g>
					<g>
						<path fill="#737980" d="M647.5,584.6c0-0.8-0.7-1.5-1.5-1.5h-70.6c-0.8,0-1.5,0.7-1.5,1.5l0,0c0,0.8,0.7,1.5,1.5,1.5H646
							C646.9,586.1,647.5,585.5,647.5,584.6L647.5,584.6z"/>
						<rect x="575.7" y="586.1" opacity="0.2" fill="#706F6F" width="70" height="3.2"/>
					</g>
					<g>
						<path fill="#737980" d="M647.5,599.3c0-0.8-0.7-1.5-1.5-1.5h-70.6c-0.8,0-1.5,0.7-1.5,1.5l0,0c0,0.8,0.7,1.5,1.5,1.5H646
							C646.9,600.9,647.5,600.2,647.5,599.3L647.5,599.3z"/>
						<rect x="575.7" y="600.9" opacity="0.2" fill="#706F6F" width="70" height="3.2"/>
					</g>
					<g>
						<path fill="#737980" d="M647.5,614.1c0-0.8-0.7-1.5-1.5-1.5h-70.6c-0.8,0-1.5,0.7-1.5,1.5l0,0c0,0.8,0.7,1.5,1.5,1.5H646
							C646.9,615.6,647.5,614.9,647.5,614.1L647.5,614.1z"/>
						<rect x="575.7" y="615.6" opacity="0.2" fill="#706F6F" width="70" height="3.2"/>
					</g>
					<g>
						<path fill="#737980" d="M647.5,628.8c0-0.8-0.7-1.5-1.5-1.5h-70.6c-0.8,0-1.5,0.7-1.5,1.5l0,0c0,0.8,0.7,1.5,1.5,1.5H646
							C646.9,630.3,647.5,629.6,647.5,628.8L647.5,628.8z"/>
						<rect x="575.7" y="630.3" opacity="0.2" fill="#706F6F" width="70" height="3.2"/>
					</g>
					<g>
						<path fill="#737980" d="M647.5,643.5c0-0.8-0.7-1.5-1.5-1.5h-70.6c-0.8,0-1.5,0.7-1.5,1.5l0,0c0,0.8,0.7,1.5,1.5,1.5H646
							C646.9,645.1,647.5,644.4,647.5,643.5L647.5,643.5z"/>
						<rect x="575.7" y="645.1" opacity="0.2" fill="#706F6F" width="70" height="3.2"/>
					</g>
					<path opacity="0.2" fill="#706F6F" d="M648.5,503.7h-16c0.7,0,1.2-1,1.1-2.1c-0.6-21-10.6-37.7-22.9-38
						c21.3,0.2,38.7,16.9,39.7,38C650.5,502.7,649.6,503.7,648.5,503.7z"/>
					<path opacity="0.33" fill="#737980" d="M610.4,463.6c-14.3,0.3-26,17-26.7,38c0,1.1,0.6,2.1,1.3,2.1h-12.4c-1.1,0-2-0.9-2-2.1
						C571.8,480.5,589.1,463.8,610.4,463.6z"/>
				</g>
				<path opacity="0.34" fill="#CABEAE" d="M575.7,503.7v5.8h-0.3c-0.8,0-1.5,0.7-1.5,1.5c0,0.4,0.2,0.8,0.4,1.1
					c0.3,0.3,0.7,0.4,1.1,0.4h0.3v11.7h-0.3c-0.8,0-1.5,0.7-1.5,1.5c0,0.4,0.2,0.8,0.4,1.1c0.3,0.3,0.7,0.4,1.1,0.4h0.3v11.7h-0.3
					c-0.8,0-1.5,0.7-1.5,1.5c0,0.4,0.2,0.8,0.4,1.1c0.3,0.3,0.7,0.4,1.1,0.4h0.3v11.7h-0.3c-0.8,0-1.5,0.7-1.5,1.5
					c0,0.4,0.2,0.8,0.4,1.1c0.3,0.3,0.7,0.4,1.1,0.4h0.3v11.7h-0.3c-0.8,0-1.5,0.7-1.5,1.5c0,0.4,0.2,0.8,0.4,1.1
					c0.3,0.3,0.7,0.4,1.1,0.4h0.3v11.7h-0.3c-0.8,0-1.5,0.7-1.5,1.5c0,0.4,0.2,0.8,0.4,1.1c0.3,0.3,0.7,0.4,1.1,0.4h0.3v11.7h-0.3
					c-0.8,0-1.5,0.7-1.5,1.5c0,0.4,0.2,0.8,0.4,1.1c0.3,0.3,0.7,0.4,1.1,0.4h0.3v11.7h-0.3c-0.8,0-1.5,0.7-1.5,1.5
					c0,0.4,0.2,0.8,0.4,1.1c0.3,0.3,0.7,0.4,1.1,0.4h0.3v11.7h-0.3c-0.8,0-1.5,0.7-1.5,1.5c0,0.4,0.2,0.8,0.4,1.1
					c0.3,0.3,0.7,0.4,1.1,0.4h0.3V642h-0.3c-0.8,0-1.5,0.7-1.5,1.5c0,0.4,0.2,0.8,0.4,1.1c0.3,0.3,0.7,0.4,1.1,0.4h0.3v8.3h29.7
					v-8.3v-3v-11.7v-3v-11.7v-3v-11.7v-3v-11.7v-3v-11.7v-3v-11.7v-3v-11.7v-3v-11.7v-3v-11.7v-3v-5.8H575.7z"/>
			</g>
			<g>
				<rect x="568.1" y="483.4" fill="#666666" width="8.3" height="169.8"/>
				<rect x="568.1" y="483.4" opacity="0.3" fill="#99969A" width="4.9" height="169.8"/>
				<rect x="568.1" y="483.4" opacity="0.3" fill="#99969A" width="1.5" height="169.8"/>
			</g>
		</g>
		<g>
			<g>
				<g>
					<linearGradient id="SVGID_1_" gradientUnits="userSpaceOnUse" x1="366.3233" y1="666.3741" x2="1104.8507" y2="666.3741">
						<stop  offset="0.1176" style="stop-color:#CB7C10"/>
						<stop  offset="0.7179" style="stop-color:#C07910"/>
						<stop  offset="0.9198" style="stop-color:#BB7810"/>
					</linearGradient>
					<path fill="url(#SVGID_1_)" d="M1104.9,739.6c-27-21.6-176.3-146.5-369.3-146.5c-193,0-342.3,124.8-369.3,146.5H1104.9z"/>
					<linearGradient id="SVGID_2_" gradientUnits="userSpaceOnUse" x1="568.6309" y1="666.3719" x2="1104.8507" y2="666.3719">
						<stop  offset="6.866950e-02" style="stop-color:#FFCD2E"/>
						<stop  offset="0.8412" style="stop-color:#FFB52E"/>
					</linearGradient>
					<path fill="url(#SVGID_2_)" d="M1104.9,739.6H963.1C903.4,696,779,619.3,627.7,619.3c-20.2,0-39.9,1.4-59.1,3.8
						c49.7-17.6,106.1-30,167-30C928.6,593.1,1077.9,718,1104.9,739.6z"/>
				</g>
				<g>
					<linearGradient id="SVGID_3_" gradientUnits="userSpaceOnUse" x1="217.0571" y1="697.3254" x2="622.5605" y2="697.3254">
						<stop  offset="0.1176" style="stop-color:#CB7C10"/>
						<stop  offset="0.7179" style="stop-color:#C07910"/>
						<stop  offset="0.9198" style="stop-color:#BB7810"/>
					</linearGradient>
					<path fill="url(#SVGID_3_)" d="M622.6,737.5c-14.8-11.9-96.8-80.4-202.8-80.4c-106,0-187.9,68.5-202.7,80.4H622.6z"/>
					<linearGradient id="SVGID_4_" gradientUnits="userSpaceOnUse" x1="328.1401" y1="697.3254" x2="622.5605" y2="697.3254">
						<stop  offset="6.866950e-02" style="stop-color:#FFCD2E"/>
						<stop  offset="0.8412" style="stop-color:#FFB52E"/>
					</linearGradient>
					<path fill="url(#SVGID_4_)" d="M622.6,737.5h-77.8c-32.8-23.9-101.1-66-184.2-66c-11.1,0-21.9,0.8-32.4,2.1
						c27.3-9.7,58.3-16.5,91.7-16.5C525.8,657.1,607.8,725.6,622.6,737.5z"/>
				</g>
			</g>
		</g>
		<g>
			<g>
				<g>
					<linearGradient id="SVGID_5_" gradientUnits="userSpaceOnUse" x1="968.8004" y1="681.5269" x2="1707.3278" y2="681.5269">
						<stop  offset="0.1176" style="stop-color:#CB7C10"/>
						<stop  offset="0.7179" style="stop-color:#C07910"/>
						<stop  offset="0.9198" style="stop-color:#BB7810"/>
					</linearGradient>
					<path fill="url(#SVGID_5_)" d="M1707.3,739.6c-27-17.2-176.3-116.2-369.3-116.2s-342.3,99-369.3,116.2H1707.3z"/>
					<linearGradient id="SVGID_6_" gradientUnits="userSpaceOnUse" x1="1171.1079" y1="681.5247" x2="1707.3278" y2="681.5247">
						<stop  offset="6.866950e-02" style="stop-color:#FFCD2E"/>
						<stop  offset="0.8412" style="stop-color:#FFB52E"/>
					</linearGradient>
					<path fill="url(#SVGID_6_)" d="M1707.3,739.6h-141.8c-59.7-34.6-184.1-95.4-335.4-95.4c-20.2,0-39.9,1.1-59.1,3
						c49.7-14,106.1-23.8,167-23.8C1531.1,623.4,1680.3,722.4,1707.3,739.6z"/>
				</g>
				<g>
					<linearGradient id="SVGID_7_" gradientUnits="userSpaceOnUse" x1="819.5341" y1="706.0739" x2="1225.0376" y2="706.0739">
						<stop  offset="0.1176" style="stop-color:#CB7C10"/>
						<stop  offset="0.7179" style="stop-color:#C07910"/>
						<stop  offset="0.9198" style="stop-color:#BB7810"/>
					</linearGradient>
					<path fill="url(#SVGID_7_)" d="M1225,738c-14.8-9.4-96.8-63.8-202.8-63.8c-106,0-187.9,54.4-202.7,63.8H1225z"/>
					<linearGradient id="SVGID_8_" gradientUnits="userSpaceOnUse" x1="930.6172" y1="706.0739" x2="1225.0376" y2="706.0739">
						<stop  offset="6.866950e-02" style="stop-color:#FFCD2E"/>
						<stop  offset="0.8412" style="stop-color:#FFB52E"/>
					</linearGradient>
					<path fill="url(#SVGID_8_)" d="M1225,738h-77.8c-32.8-19-101.1-52.4-184.2-52.4c-11.1,0-21.9,0.6-32.4,1.7
						c27.3-7.7,58.3-13.1,91.7-13.1C1128.3,674.2,1210.2,728.5,1225,738z"/>
				</g>
			</g>
		</g>
		<g>
			<path fill-rule="evenodd" clip-rule="evenodd" fill="#C1C296" d="M1399.5,659.7h-63.4c-5.7,0-10.5-4.7-10.3-10.4l10.3-304.8
				c0.2-5.7,4.6-10.4,10.3-10.4h42.7c5.7,0,10.1,4.7,10.3,10.4l10.3,304.8C1410,655,1405.2,659.7,1399.5,659.7"/>
			<path fill-rule="evenodd" clip-rule="evenodd" fill="#BB2726" d="M1337.4,327h60.8c6,0,10.8,4.9,10.8,11v0c0,6-4.9,11-10.8,11
				h-60.8c-6,0-10.8-4.9-10.8-11v0C1326.5,331.9,1331.4,327,1337.4,327"/>
			<path fill-rule="evenodd" clip-rule="evenodd" fill="#C1C296" d="M1518.6,621.7h-63.4c-5.7,0-10.5-4.7-10.3-10.4l10.3-304.8
				c0.2-5.7,4.6-10.4,10.3-10.4h42.7c5.7,0,10.1,4.7,10.3,10.4l10.3,304.8C1529.1,617,1524.3,621.7,1518.6,621.7"/>
			<polygon fill-rule="evenodd" clip-rule="evenodd" fill="#F4C41C" points="1277.7,738.9 1579.1,738.9 1579.1,565.1 1477.8,461.9 
				1379.6,559.9 1379.9,492.2 1277.7,565.1 			"/>
			<rect x="1346.1" y="605.4" fill-rule="evenodd" clip-rule="evenodd" fill="#F7F4CA" width="41.9" height="42.3"/>
			<rect x="1407.5" y="605.4" fill-rule="evenodd" clip-rule="evenodd" fill="#F7F4CA" width="41.9" height="42.3"/>
			<rect x="1468.8" y="605.4" fill-rule="evenodd" clip-rule="evenodd" fill="#C1C296" width="41.9" height="42.3"/>
			<path fill-rule="evenodd" clip-rule="evenodd" fill="#BB2726" d="M1456,288.9h61.9c6.1,0,11,5,11,11.2c0,6.1-5,11.2-11,11.2H1456
				c-6.1,0-11-5-11-11.2C1445,293.9,1449.9,288.9,1456,288.9"/>
			<polygon fill-rule="evenodd" clip-rule="evenodd" fill="#78241C" points="1335.2,385.8 1400.3,385.8 1399.7,368.1 1335.8,368.1 
							"/>
			<polygon fill-rule="evenodd" clip-rule="evenodd" fill="#78241C" points="1401.5,404.8 1334,404.8 1333.4,422.7 1402.1,422.7 			
				"/>
			<polygon fill-rule="evenodd" clip-rule="evenodd" fill="#78241C" points="1402.7,440.7 1332.8,440.7 1332.2,458.6 1403.3,458.6 
							"/>
			<polygon fill-rule="evenodd" clip-rule="evenodd" fill="#78241C" points="1403.9,476.6 1331.6,476.6 1331,494.5 1376.7,494.5 
				1379.9,492.2 1379.9,494.5 1404.6,494.5 			"/>
			<polygon fill-rule="evenodd" clip-rule="evenodd" fill="#78241C" points="1405.2,512.5 1379.8,512.5 1379.8,530.4 1405.8,530.4 
							"/>
			<polygon fill-rule="evenodd" clip-rule="evenodd" fill="#78241C" points="1379.7,548.4 1379.6,559.9 1391.2,548.4 			"/>
			<path fill-rule="evenodd" clip-rule="evenodd" fill="#B39131" d="M1510.7,647.7h-41.9v-26v-16.3h41.9v16.3V647.7z M1428.4,647.7
				v89.9h150.7V565.1l-53.6-54.6l-47.7-48.6l-12.4,12.4l-16.4,16.4l-20.6,20.5v94.1h16.7h4.3v14.5v27.9H1428.4z"/>
			<polygon fill-rule="evenodd" clip-rule="evenodd" fill="#C1C296" points="1428.4,647.7 1449.4,647.7 1449.4,619.8 1449.4,605.4 
				1445.1,605.4 1428.4,605.4 			"/>
			<path fill-rule="evenodd" clip-rule="evenodd" fill="#F7F4CA" d="M1486.9,471.2v-160H1456c-0.3,0-0.6,0-0.9,0l-6.1,179.5
				l28.8-28.8L1486.9,471.2z"/>
			<polygon fill-rule="evenodd" clip-rule="evenodd" fill="#78241C" points="1453.8,348.6 1520,348.6 1519.4,330.7 1454.4,330.7 			
				"/>
			<polygon fill-rule="evenodd" clip-rule="evenodd" fill="#78241C" points="1520.6,366.6 1453.2,366.6 1452.6,384.5 1521.2,384.5 
							"/>
			<polygon fill-rule="evenodd" clip-rule="evenodd" fill="#78241C" points="1521.9,402.5 1452,402.5 1451.3,420.5 1522.5,420.5 			
				"/>
			<polygon fill-rule="evenodd" clip-rule="evenodd" fill="#78241C" points="1523.1,438.4 1450.7,438.4 1450.1,456.4 1523.7,456.4 
							"/>
			<polygon fill-rule="evenodd" clip-rule="evenodd" fill="#78241C" points="1524.3,474.3 1490.3,474.3 1508,492.3 1524.9,492.3 			
				"/>
			<polygon fill-rule="evenodd" clip-rule="evenodd" fill="#78241C" points="1465.4,474.3 1449.5,474.3 1449,490.7 			"/>
			<polygon fill-rule="evenodd" clip-rule="evenodd" fill="#BB2726" points="1465.4,474.3 1449.5,474.3 1449,490.7 			"/>
			<polygon fill-rule="evenodd" clip-rule="evenodd" fill="#BB2726" points="1450.2,456.4 1486.9,456.4 1486.9,438.4 1450.8,438.4 
							"/>
			<polygon fill-rule="evenodd" clip-rule="evenodd" fill="#BB2726" points="1451.4,420.5 1486.9,420.5 1486.9,402.5 1452,402.5 			
				"/>
			<polygon fill-rule="evenodd" clip-rule="evenodd" fill="#BB2726" points="1452.6,384.5 1486.9,384.5 1486.9,366.6 1453.2,366.6 
							"/>
			<polygon fill-rule="evenodd" clip-rule="evenodd" fill="#BB2726" points="1453.8,348.6 1486.9,348.6 1486.9,330.7 1454.4,330.7 
							"/>
			<path fill-rule="evenodd" clip-rule="evenodd" fill="#F7F4CA" d="M1367.8,500.9V349.3h-30.9c-0.3,0-0.6,0-0.9,0l-6.1,178.7
				l33.1-23.6L1367.8,500.9z"/>
			<polygon fill-rule="evenodd" clip-rule="evenodd" fill="#BB2726" points="1329.9,527.9 1351.5,512.5 1330.4,512.5 			"/>
			<polygon fill-rule="evenodd" clip-rule="evenodd" fill="#BB2726" points="1331,494.5 1367.8,494.5 1367.8,476.6 1331.6,476.6 			
				"/>
			<polygon fill-rule="evenodd" clip-rule="evenodd" fill="#BB2726" points="1332.8,456.4 1367.8,456.4 1367.8,438.7 1333.4,438.7 
							"/>
			<polygon fill-rule="evenodd" clip-rule="evenodd" fill="#BB2726" points="1333.4,422.7 1367.8,422.7 1367.8,404.8 1334,404.8 			
				"/>
			<polygon fill-rule="evenodd" clip-rule="evenodd" fill="#BB2726" points="1334.7,386.8 1367.8,386.8 1367.8,368.8 1335.3,368.8 
							"/>
		</g>
		<g>
			<g>
				<g>
					<g>
						<path fill="#EA820B" d="M1622.2,620.7l30.6-17.4c2.8-1.6,6.1-1.6,8.9,0l30.6,17.4c2.8,1.6,4.4,4.5,4.4,7.6v34.8
							c0,3.1-1.7,6-4.4,7.6l-30.6,17.4c-2.8,1.6-6.2,1.6-8.9,0l-30.6-17.4c-2.8-1.6-4.4-4.5-4.4-7.6v-34.8
							C1617.7,625.2,1619.4,622.3,1622.2,620.7z"/>
						<linearGradient id="SVGID_9_" gradientUnits="userSpaceOnUse" x1="1617.7438" y1="645.7122" x2="1657.2267" y2="645.7122">
							<stop  offset="6.866950e-02" style="stop-color:#FFCD2E"/>
							<stop  offset="0.8412" style="stop-color:#FFB52E"/>
						</linearGradient>
						<path fill="url(#SVGID_9_)" d="M1657.2,615.9v59.5c0,6.8-7.4,11-13.3,7.6l-21.7-12.3c-2.8-1.6-4.4-4.5-4.4-7.6v-34.8
							c0-3.1,1.7-6,4.4-7.6l21.7-12.4C1649.8,605,1657.2,609.2,1657.2,615.9z"/>
					</g>
					<path fill="#3B301B" d="M1671.4,676l-12.6,10.9l-0.7-18.6c0-0.4-0.3-0.7-0.7-0.7c-0.4,0-0.7,0.3-0.7,0.7L1656,687l-11.9-10.2
						c-0.3-0.2-0.7-0.2-1,0c-0.3,0.3-0.3,0.7,0,1l12.7,14.4l-1.7,44.1c0,0.2,0.1,0.4,0.2,0.5c0.1,0.1,0.3,0.2,0.5,0.2h5.3h0
						c0.4,0,0.7-0.3,0.7-0.7c0-0.1,0-0.1,0-0.2l-1.7-43.9l13.4-15c0.2-0.3,0.2-0.7,0-1C1672.2,675.8,1671.7,675.8,1671.4,676z"/>
					<polygon fill="#634E42" points="1657.4,669.1 1657.4,736.9 1654.8,736.9 1656.5,692.5 1656.5,692.5 1643.6,678 1656.6,689.2 
											"/>
					<g>
						<g>
							<path fill="#EA820B" d="M1588.9,648.4l14.8-8.4c4.5-2.6,10-2.6,14.5,0l14.8,8.4c4.5,2.6,7.2,7.3,7.2,12.4v16.8
								c0,5.1-2.8,9.8-7.2,12.4l-14.8,8.4c-4.5,2.6-10,2.6-14.5,0l-14.8-8.4c-4.5-2.6-7.2-7.3-7.2-12.4v-16.8
								C1581.6,655.6,1584.4,650.9,1588.9,648.4z"/>
							<linearGradient id="SVGID_10_" gradientUnits="userSpaceOnUse" x1="1581.6487" y1="669.1524" x2="1610.9208" y2="669.1524">
								<stop  offset="6.866950e-02" style="stop-color:#FFCD2E"/>
								<stop  offset="0.8412" style="stop-color:#FFB52E"/>
							</linearGradient>
							<path fill="url(#SVGID_10_)" d="M1610.9,660.6v17.2c0,11-12.1,17.9-21.7,12.4l-0.3-0.2c-4.5-2.6-7.2-7.3-7.2-12.4v-16.8
								c0-5.1,2.8-9.8,7.2-12.4l0.3-0.2C1598.8,642.7,1610.9,649.6,1610.9,660.6z"/>
						</g>
						<path fill="#3B301B" d="M1621.6,690.9l-9.3,8.1l-0.5-13.8c0-0.3-0.3-0.6-0.7-0.6c-0.3,0-0.6,0.3-0.6,0.6l-0.5,13.8l-8.8-7.6
							c-0.3-0.2-0.6-0.2-0.9,0c-0.2,0.2-0.3,0.6,0,0.9l9.6,10.8l-1.3,33.2c0,0.2,0.1,0.3,0.2,0.5c0.1,0.1,0.3,0.2,0.5,0.2h4h0
							c0.4,0,0.7-0.3,0.7-0.6c0-0.1,0-0.1,0-0.2l-1.3-33l10.1-11.3c0.2-0.3,0.2-0.6,0-0.9C1622.2,690.6,1621.8,690.6,1621.6,690.9z"
							/>
						<polygon fill="#634E42" points="1611.1,685.2 1611.1,736.3 1609.1,736.3 1610.4,702.8 1610.3,702.8 1600.7,691.9 
							1610.5,700.3 						"/>
					</g>
					<g>
						<path fill="#EA820B" d="M1534.7,620.1l23.9-13.6c4.7-2.7,10.5-2.7,15.1,0l23.9,13.6c4.7,2.7,7.6,7.6,7.6,12.9v27.3
							c0,5.3-2.9,10.3-7.6,12.9l-23.9,13.6c-4.7,2.7-10.5,2.7-15.1,0l-23.9-13.6c-4.7-2.7-7.6-7.6-7.6-12.9V633
							C1527.2,627.7,1530.1,622.8,1534.7,620.1z"/>
						<linearGradient id="SVGID_11_" gradientUnits="userSpaceOnUse" x1="1527.1663" y1="646.6683" x2="1566.2256" y2="646.6683">
							<stop  offset="6.866950e-02" style="stop-color:#FFCD2E"/>
							<stop  offset="0.8412" style="stop-color:#FFB52E"/>
						</linearGradient>
						<path fill="url(#SVGID_11_)" d="M1566.2,628v37.3c0,11.5-12.6,18.7-22.7,12.9l-8.8-5c-4.7-2.7-7.6-7.6-7.6-12.9V633
							c0-5.3,2.9-10.3,7.6-12.9l8.8-5C1553.6,609.4,1566.2,616.5,1566.2,628z"/>
					</g>
					<path fill="#3B301B" d="M1579,682.2l-11.3,9.8l-0.7-16.7c0-0.3-0.3-0.6-0.7-0.6c-0.3,0-0.6,0.3-0.6,0.6l-0.7,16.7l-10.7-9.2
						c-0.3-0.2-0.6-0.2-0.9,0c-0.2,0.2-0.3,0.6,0,0.9l11.4,12.9l-1.5,39.6c0,0.2,0.1,0.3,0.2,0.5c0.1,0.1,0.3,0.2,0.5,0.2h4.8h0
						c0.4,0,0.7-0.3,0.7-0.6c0-0.1,0-0.1,0-0.2l-1.5-39.5l12-13.5c0.2-0.3,0.2-0.6,0-0.9C1579.7,682,1579.3,682,1579,682.2z"/>
					<polygon fill="#634E42" points="1566.4,676 1566.4,736.9 1564.1,736.9 1565.6,697 1565.6,697 1554,684 1565.7,694 					"/>
				</g>
				<g>
					<g>
						<path fill="#EA820B" d="M211.7,610.9l29.8-16.9c3.5-2,7.9-2,11.5,0l29.8,16.9c3.5,2,5.7,5.8,5.7,9.8v33.9c0,4-2.2,7.8-5.7,9.8
							l-29.8,16.9c-3.5,2-7.9,2-11.5,0l-29.8-16.9c-3.5-2-5.7-5.8-5.7-9.8v-33.9C206,616.7,208.2,612.9,211.7,610.9z"/>
						<linearGradient id="SVGID_12_" gradientUnits="userSpaceOnUse" x1="205.9904" y1="637.6528" x2="247.1907" y2="637.6528">
							<stop  offset="6.866950e-02" style="stop-color:#FFCD2E"/>
							<stop  offset="0.8412" style="stop-color:#FFB52E"/>
						</linearGradient>
						<path fill="url(#SVGID_12_)" d="M247.2,610.3V665c0,8.7-9.5,14.1-17.2,9.8l-18.3-10.4c-3.5-2-5.7-5.8-5.7-9.8v-33.9
							c0-4,2.2-7.8,5.7-9.8l18.3-10.4C237.7,596.2,247.2,601.6,247.2,610.3z"/>
					</g>
					<path fill="#3B301B" d="M261.1,673.1l-12,10.4l-0.7-17.8c0-0.5-0.4-0.9-0.9-0.9c-0.5,0-0.9,0.4-0.9,0.9l-0.7,17.8l-11.3-9.7
						c-0.4-0.3-0.9-0.3-1.3,0c-0.3,0.3-0.4,0.9,0,1.3l12.4,14l-1.7,43.3c0,0.2,0.1,0.5,0.3,0.7c0.2,0.2,0.4,0.3,0.7,0.3h5.2h0
						c0.5,0,0.9-0.4,0.9-0.9c0-0.1,0-0.2,0-0.3l-1.7-43l13.1-14.7c0.3-0.4,0.3-0.9,0-1.3C262,672.8,261.4,672.8,261.1,673.1z"/>
					<polygon fill="#634E42" points="247.4,666.7 247.4,733.3 244.8,733.3 246.5,689.6 246.5,689.7 233.8,675.4 246.7,686.4 					
						"/>
					<g>
						<path fill="#EA820B" d="M317.7,630.7l25.8-14.7c2.9-1.7,6.5-1.7,9.3,0l25.8,14.7c2.9,1.6,4.7,4.7,4.7,8V668
							c0,3.3-1.8,6.3-4.7,8l-25.8,14.7c-2.9,1.6-6.5,1.6-9.3,0L317.7,676c-2.9-1.6-4.7-4.7-4.7-8v-29.4
							C313,635.3,314.8,632.3,317.7,630.7z"/>
						<linearGradient id="SVGID_13_" gradientUnits="userSpaceOnUse" x1="313.0154" y1="653.3192" x2="348.1485" y2="653.3192">
							<stop  offset="6.866950e-02" style="stop-color:#FFCD2E"/>
							<stop  offset="0.8412" style="stop-color:#FFB52E"/>
						</linearGradient>
						<path fill="url(#SVGID_13_)" d="M348.1,629.3v48.1c0,7.1-7.8,11.5-14,8l-16.4-9.4c-2.9-1.6-4.7-4.7-4.7-8v-29.4
							c0-3.3,1.8-6.3,4.7-8l16.4-9.4C340.4,617.7,348.1,622.2,348.1,629.3z"/>
					</g>
					<path fill="#3B301B" d="M361.8,675.9l-12.2,10.6l-0.7-18c0-0.3-0.3-0.6-0.6-0.6c-0.3,0-0.6,0.3-0.6,0.6l-0.7,18l-11.5-9.9
						c-0.2-0.2-0.6-0.2-0.8,0c-0.2,0.2-0.2,0.6,0,0.8l12.2,13.8l-1.7,42.5c0,0.2,0.1,0.3,0.2,0.4c0.1,0.1,0.3,0.2,0.5,0.2h5.1h0
						c0.3,0,0.6-0.3,0.6-0.6c0-0.1,0-0.1,0-0.2l-1.7-42.3l12.9-14.5c0.2-0.2,0.2-0.6,0-0.8C362.4,675.7,362.1,675.7,361.8,675.9z"/>
					<polygon fill="#634E42" points="348.3,669.2 348.3,734.4 345.7,734.4 347.4,691.6 347.4,691.7 335,677.7 347.5,688.5 					"/>
				</g>
			</g>
			<g>
				<g>
					<rect x="1255.6" y="694.4" fill="#C77C3D" width="106.4" height="4"/>
					<rect x="1255.6" y="698.4" fill="#6B370D" width="106.4" height="1.8"/>
				</g>
				<g>
					<rect x="1255.6" y="707" fill="#C77C3D" width="106.4" height="4"/>
					<rect x="1255.6" y="711" fill="#6B370D" width="106.4" height="1.8"/>
				</g>
				<g>
					<rect x="1255.6" y="719.5" fill="#C77C3D" width="106.4" height="4"/>
					<rect x="1255.6" y="723.5" fill="#6B370D" width="106.4" height="1.8"/>
				</g>
				<g>
					<path fill="#C77C3D" d="M1256.4,691.7c-1.3,0-2.4,1.1-2.4,2.4v39.7h4.7v-39.7C1258.7,692.8,1257.7,691.7,1256.4,691.7z"/>
					<path fill="#6B370D" d="M1258.7,694.1v39.7h-2.4v-42.1C1257.7,691.7,1258.7,692.8,1258.7,694.1z"/>
				</g>
				<g>
					<path fill="#C77C3D" d="M1362.4,691.7c-1.3,0-2.4,1.1-2.4,2.4v39.7h4.7v-39.7C1364.7,692.8,1363.7,691.7,1362.4,691.7z"/>
					<path fill="#6B370D" d="M1364.7,694.1v39.7h-2.4v-42.1C1363.7,691.7,1364.7,692.8,1364.7,694.1z"/>
				</g>
				<g>
					<path fill="#C77C3D" d="M1309.4,691.7c-1.3,0-2.4,1.1-2.4,2.4v39.7h4.7v-39.7C1311.7,692.8,1310.7,691.7,1309.4,691.7z"/>
					<path fill="#6B370D" d="M1311.7,694.1v39.7h-2.4v-42.1C1310.7,691.7,1311.7,692.8,1311.7,694.1z"/>
				</g>
			</g>
			<g>
				<g>
					<rect x="1143.1" y="694.4" fill="#C77C3D" width="106.4" height="4"/>
					<rect x="1143.1" y="698.4" fill="#6B370D" width="106.4" height="1.8"/>
				</g>
				<g>
					<rect x="1143.1" y="707" fill="#C77C3D" width="106.4" height="4"/>
					<rect x="1143.1" y="711" fill="#6B370D" width="106.4" height="1.8"/>
				</g>
				<g>
					<rect x="1143.1" y="719.5" fill="#C77C3D" width="106.4" height="4"/>
					<rect x="1143.1" y="723.5" fill="#6B370D" width="106.4" height="1.8"/>
				</g>
				<g>
					<path fill="#C77C3D" d="M1143.9,691.7c-1.3,0-2.4,1.1-2.4,2.4v39.7h4.7v-39.7C1146.2,692.8,1145.2,691.7,1143.9,691.7z"/>
					<path fill="#6B370D" d="M1146.2,694.1v39.7h-2.4v-42.1C1145.2,691.7,1146.2,692.8,1146.2,694.1z"/>
				</g>
				<g>
					<path fill="#C77C3D" d="M1249.9,691.7c-1.3,0-2.4,1.1-2.4,2.4v39.7h4.7v-39.7C1252.2,692.8,1251.2,691.7,1249.9,691.7z"/>
					<path fill="#6B370D" d="M1252.2,694.1v39.7h-2.4v-42.1C1251.2,691.7,1252.2,692.8,1252.2,694.1z"/>
				</g>
				<g>
					<path fill="#C77C3D" d="M1196.9,691.7c-1.3,0-2.4,1.1-2.4,2.4v39.7h4.7v-39.7C1199.2,692.8,1198.2,691.7,1196.9,691.7z"/>
					<path fill="#6B370D" d="M1199.2,694.1v39.7h-2.4v-42.1C1198.2,691.7,1199.2,692.8,1199.2,694.1z"/>
				</g>
			</g>
			<g>
				<g>
					<rect x="1030.7" y="694.4" fill="#C77C3D" width="106.4" height="4"/>
					<rect x="1030.7" y="698.4" fill="#6B370D" width="106.4" height="1.8"/>
				</g>
				<g>
					<rect x="1030.7" y="707" fill="#C77C3D" width="106.4" height="4"/>
					<rect x="1030.7" y="711" fill="#6B370D" width="106.4" height="1.8"/>
				</g>
				<g>
					<rect x="1030.7" y="719.5" fill="#C77C3D" width="106.4" height="4"/>
					<rect x="1030.7" y="723.5" fill="#6B370D" width="106.4" height="1.8"/>
				</g>
				<g>
					<path fill="#C77C3D" d="M1031.4,691.7c-1.3,0-2.4,1.1-2.4,2.4v39.7h4.7v-39.7C1033.8,692.8,1032.8,691.7,1031.4,691.7z"/>
					<path fill="#6B370D" d="M1033.8,694.1v39.7h-2.4v-42.1C1032.8,691.7,1033.8,692.8,1033.8,694.1z"/>
				</g>
				<g>
					<path fill="#C77C3D" d="M1137.5,691.7c-1.3,0-2.4,1.1-2.4,2.4v39.7h4.7v-39.7C1139.8,692.8,1138.8,691.7,1137.5,691.7z"/>
					<path fill="#6B370D" d="M1139.8,694.1v39.7h-2.4v-42.1C1138.8,691.7,1139.8,692.8,1139.8,694.1z"/>
				</g>
				<g>
					<path fill="#C77C3D" d="M1084.5,691.7c-1.3,0-2.4,1.1-2.4,2.4v39.7h4.7v-39.7C1086.8,692.8,1085.8,691.7,1084.5,691.7z"/>
					<path fill="#6B370D" d="M1086.8,694.1v39.7h-2.4v-42.1C1085.8,691.7,1086.8,692.8,1086.8,694.1z"/>
				</g>
			</g>
			<g>
				<g>
					<rect x="1368" y="694.4" fill="#C77C3D" width="106.4" height="4"/>
					<rect x="1368" y="698.4" fill="#6B370D" width="106.4" height="1.8"/>
				</g>
				<g>
					<rect x="1368" y="707" fill="#C77C3D" width="106.4" height="4"/>
					<rect x="1368" y="711" fill="#6B370D" width="106.4" height="1.8"/>
				</g>
				<g>
					<rect x="1368" y="719.5" fill="#C77C3D" width="106.4" height="4"/>
					<rect x="1368" y="723.5" fill="#6B370D" width="106.4" height="1.8"/>
				</g>
				<g>
					<path fill="#C77C3D" d="M1368.8,691.7c-1.3,0-2.4,1.1-2.4,2.4v39.7h4.7v-39.7C1371.1,692.8,1370.1,691.7,1368.8,691.7z"/>
					<path fill="#6B370D" d="M1371.1,694.1v39.7h-2.4v-42.1C1370.1,691.7,1371.1,692.8,1371.1,694.1z"/>
				</g>
				<g>
					<path fill="#C77C3D" d="M1474.8,691.7c-1.3,0-2.4,1.1-2.4,2.4v39.7h4.7v-39.7C1477.1,692.8,1476.1,691.7,1474.8,691.7z"/>
					<path fill="#6B370D" d="M1477.1,694.1v39.7h-2.4v-42.1C1476.1,691.7,1477.1,692.8,1477.1,694.1z"/>
				</g>
				<g>
					<path fill="#C77C3D" d="M1421.8,691.7c-1.3,0-2.4,1.1-2.4,2.4v39.7h4.7v-39.7C1424.1,692.8,1423.1,691.7,1421.8,691.7z"/>
					<path fill="#6B370D" d="M1424.1,694.1v39.7h-2.4v-42.1C1423.1,691.7,1424.1,692.8,1424.1,694.1z"/>
				</g>
			</g>
			<g>
				<g>
					<rect x="542.2" y="694.4" fill="#C77C3D" width="106.4" height="4"/>
					<rect x="542.2" y="698.4" fill="#6B370D" width="106.4" height="1.8"/>
				</g>
				<g>
					<rect x="542.2" y="707" fill="#C77C3D" width="106.4" height="4"/>
					<rect x="542.2" y="711" fill="#6B370D" width="106.4" height="1.8"/>
				</g>
				<g>
					<rect x="542.2" y="719.5" fill="#C77C3D" width="106.4" height="4"/>
					<rect x="542.2" y="723.5" fill="#6B370D" width="106.4" height="1.8"/>
				</g>
				<g>
					<path fill="#C77C3D" d="M543,691.7c-1.3,0-2.4,1.1-2.4,2.4v39.7h4.7v-39.7C545.3,692.8,544.3,691.7,543,691.7z"/>
					<path fill="#6B370D" d="M545.3,694.1v39.7H543v-42.1C544.3,691.7,545.3,692.8,545.3,694.1z"/>
				</g>
				<g>
					<path fill="#C77C3D" d="M649,691.7c-1.3,0-2.4,1.1-2.4,2.4v39.7h4.7v-39.7C651.4,692.8,650.3,691.7,649,691.7z"/>
					<path fill="#6B370D" d="M651.4,694.1v39.7H649v-42.1C650.3,691.7,651.4,692.8,651.4,694.1z"/>
				</g>
				<g>
					<path fill="#C77C3D" d="M596,691.7c-1.3,0-2.4,1.1-2.4,2.4v39.7h4.7v-39.7C598.3,692.8,597.3,691.7,596,691.7z"/>
					<path fill="#6B370D" d="M598.3,694.1v39.7H596v-42.1C597.3,691.7,598.3,692.8,598.3,694.1z"/>
				</g>
			</g>
			<g>
				<g>
					<rect x="429.8" y="694.4" fill="#C77C3D" width="106.4" height="4"/>
					<rect x="429.8" y="698.4" fill="#6B370D" width="106.4" height="1.8"/>
				</g>
				<g>
					<rect x="429.8" y="707" fill="#C77C3D" width="106.4" height="4"/>
					<rect x="429.8" y="711" fill="#6B370D" width="106.4" height="1.8"/>
				</g>
				<g>
					<rect x="429.8" y="719.5" fill="#C77C3D" width="106.4" height="4"/>
					<rect x="429.8" y="723.5" fill="#6B370D" width="106.4" height="1.8"/>
				</g>
				<g>
					<path fill="#C77C3D" d="M430.6,691.7c-1.3,0-2.4,1.1-2.4,2.4v39.7h4.7v-39.7C432.9,692.8,431.9,691.7,430.6,691.7z"/>
					<path fill="#6B370D" d="M432.9,694.1v39.7h-2.4v-42.1C431.9,691.7,432.9,692.8,432.9,694.1z"/>
				</g>
				<g>
					<path fill="#C77C3D" d="M536.6,691.7c-1.3,0-2.4,1.1-2.4,2.4v39.7h4.7v-39.7C539,692.8,537.9,691.7,536.6,691.7z"/>
					<path fill="#6B370D" d="M539,694.1v39.7h-2.4v-42.1C537.9,691.7,539,692.8,539,694.1z"/>
				</g>
				<g>
					<path fill="#C77C3D" d="M483.6,691.7c-1.3,0-2.4,1.1-2.4,2.4v39.7h4.7v-39.7C485.9,692.8,484.9,691.7,483.6,691.7z"/>
					<path fill="#6B370D" d="M485.9,694.1v39.7h-2.4v-42.1C484.9,691.7,485.9,692.8,485.9,694.1z"/>
				</g>
			</g>
			<g>
				<g>
					<rect x="317.3" y="694.4" fill="#C77C3D" width="106.4" height="4"/>
					<rect x="317.3" y="698.4" fill="#6B370D" width="106.4" height="1.8"/>
				</g>
				<g>
					<rect x="317.3" y="707" fill="#C77C3D" width="106.4" height="4"/>
					<rect x="317.3" y="711" fill="#6B370D" width="106.4" height="1.8"/>
				</g>
				<g>
					<rect x="317.3" y="719.5" fill="#C77C3D" width="106.4" height="4"/>
					<rect x="317.3" y="723.5" fill="#6B370D" width="106.4" height="1.8"/>
				</g>
				<g>
					<path fill="#C77C3D" d="M318.1,691.7c-1.3,0-2.4,1.1-2.4,2.4v39.7h4.7v-39.7C320.5,692.8,319.4,691.7,318.1,691.7z"/>
					<path fill="#6B370D" d="M320.5,694.1v39.7h-2.4v-42.1C319.4,691.7,320.5,692.8,320.5,694.1z"/>
				</g>
				<g>
					<path fill="#C77C3D" d="M424.1,691.7c-1.3,0-2.4,1.1-2.4,2.4v39.7h4.7v-39.7C426.5,692.8,425.4,691.7,424.1,691.7z"/>
					<path fill="#6B370D" d="M426.5,694.1v39.7h-2.4v-42.1C425.4,691.7,426.5,692.8,426.5,694.1z"/>
				</g>
				<g>
					<path fill="#C77C3D" d="M371.1,691.7c-1.3,0-2.4,1.1-2.4,2.4v39.7h4.7v-39.7C373.5,692.8,372.4,691.7,371.1,691.7z"/>
					<path fill="#6B370D" d="M373.5,694.1v39.7h-2.4v-42.1C372.4,691.7,373.5,692.8,373.5,694.1z"/>
				</g>
			</g>
			<g>
				<g>
					<rect x="204.9" y="694.4" fill="#C77C3D" width="106.4" height="4"/>
					<rect x="204.9" y="698.4" fill="#6B370D" width="106.4" height="1.8"/>
				</g>
				<g>
					<rect x="204.9" y="707" fill="#C77C3D" width="106.4" height="4"/>
					<rect x="204.9" y="711" fill="#6B370D" width="106.4" height="1.8"/>
				</g>
				<g>
					<rect x="204.9" y="719.5" fill="#C77C3D" width="106.4" height="4"/>
					<rect x="204.9" y="723.5" fill="#6B370D" width="106.4" height="1.8"/>
				</g>
				<g>
					<path fill="#C77C3D" d="M205.7,691.7c-1.3,0-2.4,1.1-2.4,2.4v39.7h4.7v-39.7C208,692.8,207,691.7,205.7,691.7z"/>
					<path fill="#6B370D" d="M208,694.1v39.7h-2.4v-42.1C207,691.7,208,692.8,208,694.1z"/>
				</g>
				<g>
					<path fill="#C77C3D" d="M311.7,691.7c-1.3,0-2.4,1.1-2.4,2.4v39.7h4.7v-39.7C314,692.8,313,691.7,311.7,691.7z"/>
					<path fill="#6B370D" d="M314,694.1v39.7h-2.4v-42.1C313,691.7,314,692.8,314,694.1z"/>
				</g>
				<g>
					<path fill="#C77C3D" d="M258.7,691.7c-1.3,0-2.4,1.1-2.4,2.4v39.7h4.7v-39.7C261,692.8,260,691.7,258.7,691.7z"/>
					<path fill="#6B370D" d="M261,694.1v39.7h-2.4v-42.1C260,691.7,261,692.8,261,694.1z"/>
				</g>
			</g>
			<g>
				<g>
					<g>
						<rect x="647.7" y="521.8" fill="#F9BE23" width="171.8" height="212.1"/>
						<rect x="647.7" y="673.6" fill="#FBF3AE" width="171.8" height="60.9"/>
						<rect x="647.7" y="669.9" fill="#D08D19" width="171.8" height="3.6"/>
						<rect x="672.5" y="541.1" fill="#CBE9EF" width="122.1" height="44.6"/>
						<rect x="672.5" y="613.7" fill="#CBE9EF" width="122.1" height="44.6"/>
						<rect x="672.5" y="693.2" fill="#C4C9C6" width="37.3" height="40.6"/>
						<rect x="757.4" y="693.2" fill="#C4C9C6" width="37.3" height="40.6"/>
						<rect x="672.5" y="693.2" fill="#8B8797" width="37.3" height="4.4"/>
						<rect x="757.4" y="693.2" fill="#8B8797" width="37.3" height="4.4"/>
						<rect x="672.5" y="541.1" fill="#8B8797" width="122.1" height="2.5"/>
						<rect x="672.5" y="613.7" fill="#8B8797" width="122.1" height="1.9"/>
						<rect x="689.7" y="697.6" fill="#8B8797" width="2.1" height="36.2"/>
						<rect x="775" y="697.6" fill="#8B8797" width="2.1" height="36.2"/>
						<polygon fill="#F2F7EF" points="743.8,543.6 700.6,585.7 728.3,585.7 768.2,543.6 						"/>
						<polygon fill="#F2F7EF" points="693.2,615.6 672.5,641.1 672.5,658.3 709.8,615.6 						"/>
						<polygon fill="#F2F7EF" points="730.9,615.6 693.9,658.3 723.8,658.3 757.4,615.6 						"/>
						<polygon fill="#F2F7EF" points="785.2,615.6 757.4,658.3 763.7,658.3 791.8,615.6 						"/>
						<polygon fill="#F2F7EF" points="794.7,547.3 759.3,585.7 772.2,585.7 794.7,561.7 						"/>
						<polygon fill="#F2F7EF" points="684,543.6 672.5,556.5 672.5,563.4 691.2,543.6 						"/>
					</g>
					<rect x="671.9" y="502.9" fill="#FFE94A" width="56.4" height="18.9"/>
					<rect x="679.8" y="491.7" fill="#FFE94A" width="38.9" height="11.2"/>
					<rect x="671.9" y="520" fill="#E0BE3C" width="56.4" height="1.9"/>
					<rect x="819.5" y="558" fill="#F5AD30" width="59.9" height="176.5"/>
					<rect x="828.2" y="579.8" fill="#D2EDE7" width="41.7" height="140.7"/>
					<rect x="824.8" y="624.9" fill="#F5AD30" width="49.3" height="3"/>
					<rect x="824.6" y="673.6" fill="#F5AD30" width="49.3" height="3"/>
					<rect x="819.5" y="558" opacity="0.8" fill="#CF7D0D" width="5" height="176.5"/>
					<polygon fill="#F2F7EF" points="862.4,579.8 841.3,624.9 849.4,624.9 870,579.8 					"/>
					<polygon fill="#F2F7EF" points="865,627.9 843.2,673.6 852.4,673.6 870,633 870,627.9 					"/>
					<polygon fill="#F2F7EF" points="862.4,676.5 843.2,720.6 849.4,720.6 867.9,676.5 					"/>
					<rect x="640.4" y="734.5" fill="#F7F79B" width="245.4" height="2.5"/>
				</g>
				<g>
					<g>
						<rect x="825.7" y="549.6" fill="#961C04" width="168.8" height="20.6"/>
						<rect x="785.1" y="572.1" fill="#BA1F00" width="249" height="156.7"/>
						<rect x="780.1" y="563.3" fill="#BA1F00" width="259.1" height="13.7"/>
						<rect x="777.1" y="723.1" fill="#BA1F00" width="263.5" height="13.7"/>
						<rect x="816.7" y="547.4" fill="#BA1F00" width="186.3" height="6.3"/>
						<rect x="785.1" y="577" fill="#973017" width="249" height="1.9"/>
					</g>
					<g>
						<rect x="800" y="639" fill="#D7B374" width="44.1" height="2.5"/>
						<g>
							<rect x="802.3" y="586.1" fill="#D7B374" width="38.9" height="52.9"/>
							<rect x="805.9" y="589.6" fill="#50504E" width="31.7" height="46.1"/>
							<polygon fill="#5B5B5A" points="805.9,589.6 837.6,619.8 837.6,589.6 							"/>
						</g>
					</g>
					<g>
						<rect x="857.9" y="639" fill="#D7B374" width="44.1" height="2.5"/>
						<g>
							<rect x="860.3" y="586.1" fill="#D7B374" width="38.9" height="52.9"/>
							<rect x="863.9" y="589.6" fill="#50504E" width="31.7" height="46.1"/>
							<polygon fill="#5B5B5A" points="863.9,589.6 895.6,619.8 895.6,589.6 							"/>
						</g>
					</g>
					<g>
						<rect x="799.7" y="711.5" fill="#D7B374" width="44.1" height="2.5"/>
						<g>
							<rect x="802.1" y="658.6" fill="#D7B374" width="38.9" height="52.9"/>
							<rect x="805.7" y="662.2" fill="#50504E" width="31.7" height="46.1"/>
							<polygon fill="#5B5B5A" points="805.7,662.2 837.3,692.4 837.3,662.2 							"/>
						</g>
					</g>
					<g>
						<rect x="981" y="711.6" fill="#D7B374" width="44.1" height="2.5"/>
						<g>
							<rect x="983.3" y="658.7" fill="#D7B374" width="38.9" height="52.9"/>
							<rect x="986.9" y="662.3" fill="#50504E" width="31.7" height="46.1"/>
							<polygon fill="#5B5B5A" points="986.9,662.3 1018.6,692.5 1018.6,662.3 							"/>
						</g>
					</g>
					<g>
						<rect x="917.7" y="639" fill="#D7B374" width="44.1" height="2.5"/>
						<g>
							<rect x="920" y="586.1" fill="#D7B374" width="38.9" height="52.9"/>
							<rect x="923.6" y="589.6" fill="#50504E" width="31.7" height="46.1"/>
							<polygon fill="#5B5B5A" points="923.6,589.6 955.3,619.8 955.3,589.6 							"/>
						</g>
					</g>
					<g>
						<rect x="978.6" y="639.2" fill="#D7B374" width="44.1" height="2.5"/>
						<g>
							<rect x="981" y="586.3" fill="#D7B374" width="38.9" height="52.9"/>
							<rect x="984.6" y="589.8" fill="#50504E" width="31.7" height="46.1"/>
							<polygon fill="#5B5B5A" points="984.6,589.8 1016.3,620 1016.3,589.8 							"/>
						</g>
					</g>
					<g>
						<g>
							<rect x="861.3" y="658.1" fill="#D7B374" width="51.1" height="69.5"/>
							<rect x="866.1" y="662.8" fill="#50504E" width="41.6" height="60.5"/>
							<polygon fill="#5B5B5A" points="866.1,662.8 907.7,702.5 907.7,662.8 							"/>
						</g>
						<g>
							<rect x="907.7" y="658.3" fill="#D7B374" width="51.1" height="69.5"/>
							<rect x="912.4" y="663" fill="#50504E" width="41.6" height="60.5"/>
							<polygon fill="#5B5B5A" points="912.4,663 954,702.7 954,663 							"/>
						</g>
					</g>
				</g>
			</g>
		</g>
	</g>
	<g>
		<defs>
			<path id="SVGID_14_" d="M1755,734.2H196.4c-16.2,0-29,21.4-29,47v12.5c0.4,8.9,2.2,16.7,5.1,24.4c5.5,11.3,14.3,19,23.9,19h91.9
				c11,0,20.6,11.3,24.3,26.8c1.1,4.2,2.2,10.1,2.2,14.9v1.8c0,11.3-2.9,22-7.7,29.7c-2.2,4.2-5.1,7.1-8.4,9.5
				c-1.8,1.2-3.3,2.4-5.1,2.4c-1.5,0-3.3,0.6-5.1,0.6h-82.3c-1.8,0-3.7,0.6-5.5,1.2c-3.3,1.2-6.6,3.6-9.6,6.5
				c-1.5,1.8-2.9,3.6-4,5.3c-5.1,7.7-8.5,19-8.5,31.5c0,25,12.5,44.6,27.6,44.6c-20.9,0.6-37.5,27.4-37.5,61.3v10.7
				c0,33.9,17.3,60.7,37.8,60.7h0.7h202.6c0.6,0.1,1.1,0.6,1.7,0.6h125.4c7.4,2.9,12.9,13.6,12.9,26.5c0,2.8-0.5,5.4-1,7.9
				c-0.9,4.9-2.6,9.2-5,12.5c-0.4,0.6-1,1-1.5,1.6c-2.7,3-5.8,5.2-9.3,5.2c0,0-0.1,0.1-0.1,0.1h-99.5c-10.5,0-19.1,13.8-19.1,30.9
				c0,0.1,0,0.3,0,0.4c0,0.9,0,1.7,0.1,2.6c0.1,1.6,0.6,3,0.8,4.5c0.3,1.9,0.5,3.8,1,5.6c0.1,0.3,0.1,0.7,0.2,1c0,0,0,0.1,0,0.1
				c0.1,0.3,0.3,0.5,0.4,0.8c0.4,1.1,0.9,2,1.4,3c0.7,1.5,1.2,3.1,2.1,4.4c0.6,1,1.4,1.6,2.2,2.4c0.6,0.7,1.2,1.4,1.9,2
				c0.6,0.6,1.2,1.4,1.9,1.8c2,1.3,4.2,1.9,6.4,2.1c0.3,0,0.5,0.2,0.7,0.2h201.7h90.7c-0.5,0-0.9,0.8-1.4,0.9
				c-5.7,1.3-10.2,8.4-10.2,17.9v5.9c0,10.4,5.2,18.8,11.6,18.8h0h0h0h556.6c6.4,0,11.6-8.4,11.6-18.8v-5.9
				c0-10.4-5.2-18.8-11.6-18.8h155l0,0h0c10.5,0,19.1-13.8,19.1-30.9c0-0.1,0-0.2,0-0.4c0-1.3-0.1-2.5-0.1-3.7
				c-0.1-0.1-0.2-0.1-0.3-0.2c-1.3-14.9-8.9-26.6-18.5-26.6h0c0,0,0,0,0,0h-115.3c-3.6,0-6.8-2.2-9.5-5.3c-0.4-0.5-0.9-0.8-1.2-1.4
				c-2.4-3.4-4.2-7.8-5.1-12.9c-0.5-2.5-1-5-1-7.7c0-12.9,5.5-23.6,12.9-26.5h2.5c0.6,0,1.1-0.5,1.7-0.6h224.1
				c20.9,0,37.8-26.8,37.8-60.7v-10.7c0-1.8,0-4.2-0.4-5.9h-0.4c-1.9-31-17.5-55.3-37.1-55.3h-59.5c12.1,0,22.4-12.5,25.7-30.3
				c1.5-4.8,1.8-9.5,1.8-14.3c0-22.6-11-41.6-24.6-44c-1.1-0.6-1.8-0.6-2.9-0.6h-37.5H1360c-14.3,0-26.5-18.4-26.5-42.8
				c0-0.6,0-0.6,0-1.2c0-4.8,0.7-10.7,1.8-14.9c1.5-5.4,3.7-10.1,5.9-14.3c4.8-7.7,11.4-12.5,18.7-12.5h395c9.6,0,18.4-7.7,23.9-19
				c2.9-7.7,4.8-15.5,5.1-24.4v-12.5C1784,755.6,1771.1,734.2,1755,734.2z"/>
		</defs>
		<clipPath id="SVGID_15_">
			<use xlink:href="#SVGID_14_"  overflow="visible"/>
		</clipPath>
		<g clip-path="url(#SVGID_15_)">
			<g>
				<path fill="#EA820B" d="M2060.9,743.5c23,0.3,45.9,0.6,68.7,0.8v179.9l-1114.3-8.3L-162,907.1V725.3c22.2,0.6,45.6,1.2,69.9,1.8
					c31.2,0.8,63.9,1.6,98,2.4h0c114.6,2.7,243.6,5.4,375.7,7.3h0c10.8,0.2,21.6,0.3,32.4,0.5c48.5,0.7,97.4,1.2,145.9,1.7
					c8.7,0.1,17.4,0.2,26.2,0.2h0c59,0.5,117.4,0.7,174.2,0.7c31.4,0,62.4-0.1,92.7-0.3h0c36.8-0.2,72.6-0.6,107.2-1
					c93.2-1.3,190.6-1.9,290.3-1.9h0c56.1,0,112.9,0.1,170.1,0.4h0h0c57.1,0.3,114.6,0.7,172.2,1.2h0c59.6,0.5,119.3,1.1,178.6,1.8
					h0c65.6,0.7,130.8,1.5,195.1,2.3C1998.2,742.7,2029.7,743.1,2060.9,743.5L2060.9,743.5z"/>
			</g>
		</g>
	</g>
</g>
<ellipse fill-rule="evenodd" clip-rule="evenodd" fill="#C16B16" cx="654.9" cy="794.7" rx="187.6" ry="18.6"/>
<g>
	<polygon fill-rule="evenodd" clip-rule="evenodd" fill="#C30C00" points="676.8,708.5 821.9,708.5 821.9,735.6 632.5,735.6 
		632.5,708.5 	"/>
	<path fill-rule="evenodd" clip-rule="evenodd" fill="#FE3B00" d="M560,627.9h60.1v97.4h-5.6c-22,0-39.9,18-39.9,39.9v2.1h-66.3
		v-87.7C508.2,651.2,531.5,627.9,560,627.9z"/>
	<path fill-rule="evenodd" clip-rule="evenodd" fill="#C30C00" d="M589.7,734c-4.1,3.2-7.5,7.2-10,11.7h-53.1c-6,0-11-4.9-11-11
		v-55.1l74.1-8.9V734z"/>
	<path fill-rule="evenodd" clip-rule="evenodd" fill="#2F7FB6" d="M589.7,635.2H560c-24.4,0-44.4,20-44.4,44.4v8.7h56.5
		c9.7,0,17.6-7.9,17.6-17.6V635.2z"/>
	<path fill-rule="evenodd" clip-rule="evenodd" fill="#5BBAC7" d="M587.2,637.6h-0.5l-48.2,48.2h10.3l38.4-38.4V637.6L587.2,637.6z
		 M578.7,637.6l-48.2,48.2H518v-6.2c0-2.5,0.2-5,0.7-7.4l33.9-33.9c2.4-0.4,4.9-0.7,7.4-0.7H578.7z"/>
	<path fill-rule="evenodd" clip-rule="evenodd" fill="#C36A2D" d="M564.6,694.3H577c1.2,0,2.2,1,2.2,2.2v2.2h-16.8v-2.2
		C562.4,695.3,563.4,694.3,564.6,694.3z"/>
	<path fill-rule="evenodd" clip-rule="evenodd" fill="#C36A2D" d="M515.2,690.9L515.2,690.9c0.8,0,1.5,0.7,1.5,1.5V705
		c0,0.8-0.7,1.5-1.5,1.5l0,0c-0.8,0-1.5-0.7-1.5-1.5v-12.6C513.7,691.6,514.4,690.9,515.2,690.9z"/>
	<polygon fill-rule="evenodd" clip-rule="evenodd" fill="#3B3B3B" points="500.5,751.2 514.3,751.2 522.3,759.3 522.3,784.1 
		500.5,784.1 	"/>
	<polygon fill-rule="evenodd" clip-rule="evenodd" fill="#6E6E6E" points="500.5,751.2 514.3,751.2 522.3,759.3 500.5,759.3 	"/>
	<path fill-rule="evenodd" clip-rule="evenodd" fill="#FF0000" d="M508.2,723.5h-2c-1.1,0-2,0.9-2,2v18.3c0,1.1,0.9,2,2,2h2V723.5z"
		/>
	<rect x="522.3" y="761.5" fill-rule="evenodd" clip-rule="evenodd" fill="#3B3B3B" width="52.3" height="10.7"/>
	<rect x="607.4" y="731.6" fill-rule="evenodd" clip-rule="evenodd" fill="#222222" width="214.5" height="14.5"/>
	<rect x="589.7" y="725.3" fill-rule="evenodd" clip-rule="evenodd" fill="#FE3B00" width="181.2" height="10.3"/>
	<path fill-rule="evenodd" clip-rule="evenodd" fill="#080808" d="M581.1,732c22,0,39.9,17.8,39.9,39.9l0,0.4h-79.7l0-0.4
		C541.3,749.9,559.1,732,581.1,732z"/>
	<rect x="619.1" y="744.6" fill-rule="evenodd" clip-rule="evenodd" fill="#222222" width="165.4" height="22.3"/>
	<polygon fill-rule="evenodd" clip-rule="evenodd" fill="#222222" points="703.1,744.6 821.9,744.6 821.9,755.7 810.7,766.9 
		703.1,766.9 	"/>
	<rect x="619.1" y="744.6" fill-rule="evenodd" clip-rule="evenodd" fill="#3B3B3B" width="165.4" height="8.1"/>
	<rect x="703.1" y="744.6" fill-rule="evenodd" clip-rule="evenodd" fill="#3B3B3B" width="118.8" height="8.1"/>
	<path fill-rule="evenodd" clip-rule="evenodd" fill="#FE3B00" d="M640.9,755.5h46.6c3.8,0,6.9,3.1,6.9,6.9v15.3
		c0,3.8-3.1,6.9-6.9,6.9h-46.6c-3.8,0-6.9-3.1-6.9-6.9v-15.3C634,758.6,637.1,755.5,640.9,755.5z"/>
	<path fill-rule="evenodd" clip-rule="evenodd" fill="#C30C00" d="M694.4,772.2v5.4c0,3.8-3.1,6.9-6.9,6.9h-46.6
		c-3.8,0-6.9-3.1-6.9-6.9v-5.4H694.4z"/>
	<rect x="649.3" y="752.6" fill-rule="evenodd" clip-rule="evenodd" fill="#3B3B3B" width="4.6" height="31.9"/>
	<rect x="653.9" y="755.5" fill-rule="evenodd" clip-rule="evenodd" fill="#C30C00" width="2.7" height="29"/>
	<rect x="673.2" y="752.6" fill-rule="evenodd" clip-rule="evenodd" fill="#3B3B3B" width="4.6" height="31.9"/>
	<rect x="677.8" y="755.5" fill-rule="evenodd" clip-rule="evenodd" fill="#C30C00" width="2.7" height="29"/>
	<g>
		<path fill-rule="evenodd" clip-rule="evenodd" fill="#222222" d="M581.1,804c17.7,0,32.1-14.4,32.1-32.1
			c0-17.7-14.4-32.1-32.1-32.1c-17.7,0-32.1,14.4-32.1,32.1C549,789.5,563.4,804,581.1,804z"/>
		<path fill="#DAD2C5" d="M555.6,772.4c0-13.7,11-24.9,24.8-24.9c13.7,0,24.9,11.1,24.9,24.8c0,13.7-11.1,24.9-24.8,24.9
			C566.7,797.2,555.6,786.1,555.6,772.4z"/>
		<path fill="#7E8491" d="M565.7,772.4c0-8.1,6.5-14.7,14.7-14.7c8.1,0,14.7,6.5,14.7,14.6c0,8.1-6.5,14.7-14.7,14.7
			C572.3,787.1,565.7,780.5,565.7,772.4z"/>
		<path fill="#2C2924" d="M569.4,772.4c0-6.1,4.9-11,11-11c6.1,0,11,4.9,11,10.9c0,6.1-4.9,11-11,11
			C574.3,783.4,569.4,778.4,569.4,772.4z"/>
	</g>
	<path fill-rule="evenodd" clip-rule="evenodd" fill="#3B3B3B" d="M760.7,724.5c26.4,0,47.8,21.4,47.8,47.8h-10.7
		c0-20.5-16.6-37.1-37.1-37.1c-20.5,0-37.1,16.6-37.1,37.1h-10.7C712.9,745.9,734.3,724.5,760.7,724.5z"/>
	<path fill-rule="evenodd" clip-rule="evenodd" fill="#080808" d="M760.7,732c22,0,39.9,17.8,39.9,39.9l0,0.4h-79.7l0-0.4
		C720.8,749.9,738.7,732,760.7,732z"/>
	<g>
		<path fill-rule="evenodd" clip-rule="evenodd" fill="#222222" d="M760.9,804c17.7,0,32.1-14.4,32.1-32.1
			c0-17.7-14.4-32.1-32.1-32.1c-17.7,0-32.1,14.4-32.1,32.1C728.8,789.5,743.2,804,760.9,804z"/>
		<path fill-rule="evenodd" clip-rule="evenodd" fill="#222222" d="M760.9,789.8c9.9,0,18-8.1,18-17.9c0-9.9-8.1-18-18-18
			c-9.9,0-18,8.1-18,18C743,781.8,751,789.8,760.9,789.8z"/>
		<path fill="#DAD2C5" d="M735.8,771.8c0-13.7,11-24.8,24.7-24.9c13.7,0,24.8,11,24.9,24.7c0,13.7-11,24.8-24.7,24.9
			C746.9,796.6,735.8,785.5,735.8,771.8z"/>
		<path fill="#7E8491" d="M745.9,771.8c0-8.1,6.5-14.7,14.6-14.7c8.1,0,14.7,6.5,14.7,14.6c0,8.1-6.5,14.7-14.6,14.7
			C752.5,786.4,745.9,779.9,745.9,771.8z"/>
		<path fill="#2C2924" d="M749.6,771.8c0-6,4.9-11,10.9-11c6.1,0,11,4.9,11,10.9c0,6.1-4.9,11-10.9,11
			C754.5,782.7,749.6,777.8,749.6,771.8z"/>
	</g>
	<path fill-rule="evenodd" clip-rule="evenodd" fill="#3B3B3B" d="M581.4,724.5c26.4,0,47.8,21.4,47.8,47.8h-10.7
		c0-20.5-16.6-37.1-37.1-37.1c-20.5,0-37.1,16.6-37.1,37.1h-10.7C533.7,745.9,555,724.5,581.4,724.5z"/>
	<rect x="626" y="700.8" fill-rule="evenodd" clip-rule="evenodd" fill="#EFEFEF" width="208.5" height="7.7"/>
	<path fill-rule="evenodd" clip-rule="evenodd" fill="#C36A2D" d="M602.6,627.9h3.2v98.4c-1.1,0.2-2.1,0.5-3.2,0.8V627.9z"/>
	<rect x="626" y="612.6" fill-rule="evenodd" clip-rule="evenodd" fill="#C4C4C4" width="6.5" height="95.9"/>
	<rect x="626" y="666.9" fill-rule="evenodd" clip-rule="evenodd" fill="#6E6E6E" width="6.5" height="58.4"/>
	<path fill-rule="evenodd" clip-rule="evenodd" fill="#FF0000" d="M821.9,717.4h2c1.1,0,2,0.9,2,2v18.3c0,1.1-0.9,2-2,2h-2V717.4z"
		/>
</g>
<g>
	<path fill="#E89215" d="M470.8,291.3c0,63.5-51.5,115.1-115,115.1c-63.6,0-115.1-51.5-115.1-115.1c0-63.5,51.5-115.1,115.1-115.1
		C419.3,176.3,470.8,227.8,470.8,291.3"/>
	<path fill="#E89215" d="M355.7,408.5c-64.6,0-117.1-52.5-117.1-117.1c0-64.6,52.6-117.1,117.1-117.1c64.6,0,117.1,52.5,117.1,117.1
		C472.9,355.9,420.3,408.5,355.7,408.5 M355.7,178.4c-62.3,0-113,50.7-113,113c0,62.3,50.7,113,113,113c62.3,0,113-50.7,113-113
		C468.7,229,418,178.4,355.7,178.4"/>
	<polygon fill="#E89215" points="332.2,149.9 355.7,109.2 379.3,149.9 	"/>
	<path fill="#E89215" d="M382.9,152h-54.3l27.1-47L382.9,152z M335.8,147.8h39.9l-19.9-34.5L335.8,147.8z"/>
	<polygon fill="#E89215" points="253.6,190.7 248.6,144 291.6,163.1 	"/>
	<path fill="#E89215" d="M251.9,194.5l-5.7-53.9l49.6,22.1L251.9,194.5z M251.1,147.3l4.2,39.6l32.2-23.4L251.1,147.3z"/>
	<polygon fill="#E89215" points="214,270 182.5,235 228.5,225.2 	"/>
	<path fill="#E89215" d="M214.8,274.1l-36.3-40.3l53.1-11.3L214.8,274.1z M186.4,236.3l26.7,29.6l12.3-37.9L186.4,236.3z"/>
	<polygon fill="#E89215" points="228.5,357.4 182.5,347.6 214,312.7 	"/>
	<path fill="#E89215" d="M231.6,360.2l-53.1-11.3l36.3-40.3L231.6,360.2z M186.4,346.3l39,8.3l-12.3-37.9L186.4,346.3z"/>
	<polygon fill="#E89215" points="291.6,419.6 248.6,438.7 253.6,391.9 	"/>
	<path fill="#E89215" d="M246.2,442.1l5.7-54l43.9,31.9L246.2,442.1z M255.3,395.7l-4.2,39.6l36.4-16.2L255.3,395.7z"/>
	<polygon fill="#E89215" points="379.3,432.8 355.7,473.5 332.2,432.8 	"/>
	<path fill="#E89215" d="M355.7,477.7l-27.1-47l54.3,0L355.7,477.7z M335.8,434.8l19.9,34.5l19.9-34.5H335.8z"/>
	<polygon fill="#E89215" points="457.9,391.9 462.8,438.7 419.8,419.6 	"/>
	<path fill="#E89215" d="M465.2,442.1L415.7,420l43.9-31.9L465.2,442.1z M424,419.1l36.4,16.2l-4.2-39.6L424,419.1z"/>
	<polygon fill="#E89215" points="497.5,312.7 529,347.6 483,357.4 	"/>
	<path fill="#E89215" d="M479.9,360.2l16.8-51.6l36.3,40.3L479.9,360.2z M498.4,316.7l-12.3,37.9l39-8.3L498.4,316.7z"/>
	<polygon fill="#E89215" points="483,225.2 529,235 497.5,270 	"/>
	<path fill="#E89215" d="M496.7,274.1l-16.8-51.6l53.1,11.3L496.7,274.1z M486,228l12.3,37.9l26.7-29.6L486,228z"/>
	<polygon fill="#E89215" points="419.8,163.1 462.8,143.9 457.9,190.7 	"/>
	<path fill="#E89215" d="M459.6,194.5l-43.9-31.9l49.6-22.1L459.6,194.5z M424,163.5l32.3,23.4l4.2-39.6L424,163.5z"/>
</g>
<g>
	<linearGradient id="SVGID_16_" gradientUnits="userSpaceOnUse" x1="201.6266" y1="990.8633" x2="1659.6078" y2="990.8633">
		<stop  offset="6.866950e-02" style="stop-color:#FFCD2E"/>
		<stop  offset="0.8412" style="stop-color:#FFB52E"/>
	</linearGradient>
	<path fill="url(#SVGID_16_)" d="M214.8,891H269c7.1,0,12.8-5.7,12.8-12.8v-2.9c0-7.1,5.7-12.8,12.8-12.8h0c-7.3,0-13.2-6.8-12.8-15
		c0.3-7.7,6.3-13.6,13.2-13.6h1312.6c6.9,0,12.9,5.9,13.2,13.6c0.3,8.2-5.5,15-12.8,15h-15.8c-7.1,0-12.8,6.4-12.8,14.3v0
		c0,7.9,5.7,14.3,12.8,14.3h54.2c6.9,0,12.9,5.9,13.2,13.6c0.3,8.2-5.5,15-12.8,15h-80.6c-7.1,0-12.8,6.4-12.8,14.3v0
		c0,7.9,5.7,14.3,12.8,14.3h41.5c6.9,0,12.9,5.9,13.2,13.6c0.3,8.2-5.5,15-12.8,15h-14c-7.1,0-12.8,6.4-12.8,14.3l0,0
		c0,7.9,5.7,14.3,12.8,14.3h22.5c6.9,0,12.9,5.9,13.2,13.6c0.3,8.2-5.5,15-12.8,15h-59.2c-7.1,0-12.8,6.4-12.8,14.3l0,0
		c0,7.9,5.7,14.3,12.8,14.3h49.8c6.9,0,12.9,5.9,13.2,13.6c0.3,8.2-5.5,15-12.8,15h-113.2c-7.1,0-12.8,6.4-12.8,14.3v0
		c0,7.9,5.7,14.3,12.8,14.3h87.6c6.9,0,12.9,5.9,13.2,13.6c0.3,8.2-5.5,15-12.8,15H340.8c-6.9,0-12.9-5.9-13.2-13.6
		c-0.3-8.2,5.5-15,12.8-15h88c7.1,0,12.8-6.4,12.8-14.3v0c0-7.9-5.7-14.3-12.8-14.3H315.7c-6.9,0-12.9-5.9-13.2-13.6
		c-0.3-8.2,5.5-15,12.8-15h50.2c7.1,0,12.8-6.4,12.8-14.3l0,0c0-7.9-5.7-14.3-12.8-14.3H253c-6.9,0-12.9-5.9-13.2-13.6
		c-0.3-8.2,5.5-15,12.8-15h263c7.1,0,12.8-6.4,12.8-14.3v0c0-7.9-5.7-14.3-12.8-14.3h-13.6c-6.9,0-12.9-5.9-13.2-13.6
		c-0.3-8.2,5.5-15,12.8-15H340.5c-7.1,0-12.8-6.4-12.8-14.3v0c0-7.9-5.7-14.3-12.8-14.3H214.5c-7.3,0-13.2-6.8-12.8-15
		C202,896.9,207.9,891,214.8,891z"/>
	<path fill="#F4AB2A" d="M440.3,1158.8h30.3c11.9,0,21.5-6.7,21.5-14.9l0,0c0-8.2,9.6-14.9,21.5-14.9h349.3c-23.7,0-43-13.3-43-29.8
		l0,0c0-16.5,19.2-29.8,43-29.8h118.9c23.7,0,43-13.3,43-29.8l0,0c0-16.5-19.2-29.8-43-29.8H846.5c-11.6,0-21.5-6.2-22.1-14.2
		c-0.6-8.6,9.3-15.6,21.5-15.6h171.3c23.7,0,43-13.3,43-29.8v0c0-16.5-19.2-29.8-43-29.8h-70.5c-11.6,0-21.5-6.2-22.1-14.2
		c-0.6-8.6,9.3-15.6,21.5-15.6H1076c-12.2,0-22-7.1-21.5-15.6c0.5-8,10.5-14.2,22.1-14.2c51.3,0,267.6,0,318.9,0
		c11.6,0,21.5,6.2,22.1,14.2c0.6,8.6-9.3,15.6-21.5,15.6h-24.9c-11.9,0-21.5,6.7-21.5,14.9l0,0c0,8.2,9.6,14.9,21.5,14.9h92.6
		c11.9,0,21.5,6.7,21.5,14.9v0c0,8.2-9.6,14.9-21.5,14.9h-146.9c-11.9,0-21.5,6.7-21.5,14.9v0c0,8.2,9.6,14.9,21.5,14.9l88.2,0
		c11.6,0,21.5,6.2,22.1,14.2c0.6,8.6-9.3,15.6-21.5,15.6h-34.5c-11.9,0-21.5,6.7-21.5,14.9l0,0c0,8.2,9.6,14.9,21.5,14.9h132.5
		c11.9,0,21.5,6.7,21.5,14.9v0c0,8.2-9.6,14.9-21.5,14.9h-289h-21.9c-11.9,0-21.5,6.7-21.5,14.9v0c0,8.2,9.6,14.9,21.5,14.9h21.9
		h124.3c11.6,0,21.6,6.2,22.1,14.2c0.5,8.5-9.3,15.6-21.5,15.6H928.4c-11.9,0-21.5,6.7-21.5,14.9l0,0c0,8.2,9.6,14.9,21.5,14.9
		h318.7c11.6,0,21.5,6.2,22.1,14.2c0.6,8.6-9.3,15.6-21.5,15.6h-808c-12.2,0-22-7.1-21.5-15.6C418.8,1165,428.8,1158.8,440.3,1158.8
		z"/>
</g>
<g id="树木">
	<g>
		<rect x="1111.5" y="487.5" fill="#573F39" width="38.2" height="246.3"/>
		<rect x="1102.8" y="538.7" fill="#99765D" width="55.5" height="27.3"/>
		<rect x="1102.8" y="602.2" fill="#99765D" width="55.5" height="27.3"/>
		<rect x="1102.8" y="668.8" fill="#99765D" width="55.5" height="27.3"/>
	</g>
	<path fill="#6C7537" d="M1047.5,427.4c-35.7,0-64.7,34-64.7,76h20.1l10.6-21.6l10.6,21.6h12.7l10.6-21.6l10.6,21.6h14.9l10.6-21.6
		l10.6,21.6h18C1112.2,461.5,1083.2,427.4,1047.5,427.4z"/>
	<path fill="#B2A938" d="M1214.3,427.4c-35.7,0-64.7,34-64.7,76h20.1l10.6-21.6l10.6,21.6h12.7l10.6-21.6l10.6,21.6h14.9l10.6-21.6
		l10.6,21.6h18C1279,461.5,1250,427.4,1214.3,427.4z"/>
	<path fill="#869325" d="M1132.6,395.7c-20.1,34.7-12.4,82,17.2,105.6l11.3-19.6l-9.2-22.4l21.2,1.8l7.2-12.4l-9.2-22.4l21.2,1.8
		l8.4-14.5l-9.2-22.4l21.2,1.8l10.1-17.5C1192.9,351.9,1152.7,361,1132.6,395.7z"/>
	<path fill="#D8BB44" d="M1126.3,395.7c20.1,34.7,12.4,82-17.2,105.6l-11.3-19.6l9.2-22.4l-21.2,1.8l-7.2-12.4l9.2-22.4l-21.2,1.8
		l-8.4-14.5l9.2-22.4l-21.2,1.8l-10.1-17.5C1066,351.9,1106.2,361,1126.3,395.7z"/>
	<path fill="#674D31" d="M1132.6,499.1c0,13.2-9.1,24-20.4,24c-11.3,0-20.4-10.7-20.4-24c0-13.3,9.1-24,20.4-24
		C1123.4,475.1,1132.6,485.9,1132.6,499.1z"/>
	<path fill="#674D31" d="M1173.4,499.1c0,13.2-9.1,24-20.4,24c-11.3,0-20.4-10.7-20.4-24c0-13.3,9.1-24,20.4-24
		C1164.2,475.1,1173.4,485.9,1173.4,499.1z"/>
	<path fill="#AE6F3B" d="M1150.9,475.1c0,13.3-9.1,24-20.4,24c-11.3,0-20.4-10.7-20.4-24c0-13.2,9.1-24,20.4-24
		C1141.8,451.2,1150.9,461.9,1150.9,475.1z"/>
</g>
<g>
	<path fill="#E1F3FF" d="M760.6,279.8c0-12.8-12.2-23.2-27.2-23.2c-15,0-27.2,10.4-27.2,23.2c0,2.9,0.6,5.6,1.7,8.1c17,0,34,0,51,0
		C760,285.3,760.6,282.6,760.6,279.8z"/>
	<path fill="#E1F3FF" d="M758.8,288.2c0-0.1,0.1-0.2,0.1-0.3c-17,0-34,0-51,0c0.1,0.1,0.1,0.2,0.2,0.4
		C725,288.2,741.9,288.1,758.8,288.2z"/>
	<ellipse fill="#E1F3FF" cx="764.2" cy="256.5" rx="27.2" ry="23.2"/>
	<path fill="#E1F3FF" d="M787.8,279.8c0-12.8-12.2-23.2-27.2-23.2c-15,0-27.2,10.4-27.2,23.2c0,2.9,0.6,5.6,1.7,8.1c17,0,34,0,51,0
		C787.2,285.3,787.8,282.6,787.8,279.8z"/>
	<path fill="#E1F3FF" d="M785.9,288.3c0.1-0.1,0.1-0.3,0.2-0.4c-17,0-34,0-51,0c0,0.1,0.1,0.2,0.1,0.3
		C752.1,288.1,769,288.2,785.9,288.3z"/>
	<path fill="#E1F3FF" d="M815,279.8c0-12.8-12.2-23.2-27.2-23.2c-15,0-27.2,10.4-27.2,23.2c0,2.9,0.6,5.6,1.7,8.1c17,0,34,0,51,0
		C814.4,285.3,815,282.6,815,279.8z"/>
	<path fill="#E1F3FF" d="M813.3,287.9c-17,0-34,0-51,0c0,0.1,0.1,0.2,0.2,0.3c16.9,0,33.7,0.1,50.6,0.2
		C813.1,288.2,813.2,288,813.3,287.9z"/>
	<ellipse fill="#E1F3FF" cx="814.8" cy="245" rx="27.2" ry="23.2"/>
	<path fill="#E1F3FF" d="M850.4,268.3c0-12.8-12.2-23.2-27.2-23.2S796,255.4,796,268.3c0,8.2,5,15.5,12.6,19.6c9.7,0,19.5,0,29.2,0
		C845.3,283.7,850.4,276.5,850.4,268.3z"/>
	<path fill="#E1F3FF" d="M837.8,287.9c-9.7,0-19.5,0-29.2,0c0.3,0.2,0.7,0.3,1,0.5c8.9,0,17.9,0.1,26.8,0.2
		C836.9,288.3,837.3,288.1,837.8,287.9z"/>
	<path fill="#E1F3FF" d="M888.8,287.9c-17,0-34,0-51,0c0.1,0.2,0.2,0.5,0.3,0.7c16.7,0.1,33.4,0.2,50.2,0.3
		C888.5,288.5,888.7,288.2,888.8,287.9z"/>
	<path fill="#E1F3FF" d="M890.5,279.8c0-12.8-12.2-23.2-27.2-23.2c-15,0-27.2,10.4-27.2,23.2c0,2.9,0.6,5.6,1.7,8.1c17,0,34,0,51,0
		C889.9,285.3,890.5,282.6,890.5,279.8z"/>
	<path fill="#E1F3FF" d="M862.1,268.3c0-12.8-12.2-23.2-27.2-23.2c-15,0-27.2,10.4-27.2,23.2c0,8.2,5,15.5,12.6,19.6
		c9.7,0,19.5,0,29.2,0C857.1,283.7,862.1,276.5,862.1,268.3z"/>
	<path fill="#E1F3FF" d="M849.5,287.9c-9.7,0-19.5,0-29.2,0c0.4,0.2,0.8,0.4,1.1,0.6c8.9,0.1,17.7,0.1,26.6,0.2
		C848.5,288.4,849,288.1,849.5,287.9z"/>
	<path fill="#E1F3FF" d="M827.2,268.3c-13.6,0-24.8,8.5-26.9,19.6c17.9,0,35.8,0,53.7,0C852.1,276.8,840.8,268.3,827.2,268.3z"/>
</g>
<g>
	<g>
		<polygon fill="#FF3615" points="1079.6,718.3 1076.1,712.4 1079.4,712.4 1070.1,657.2 1060.7,712.4 1064,712.4 1060.6,718.3 		"/>
		<path fill="#FF3615" d="M1080.7,719h-21.3l3.4-6h-2.9l10.2-59.9l10.2,59.9h-2.9L1080.7,719z M1061.8,717.6h16.6l-3.4-6h3.7
			l-8.6-50.4l-8.5,50.4h3.7L1061.8,717.6z"/>
		<path fill="#FF3615" d="M1070.1,737.1c-0.4,0-0.7-0.3-0.7-0.7v-36.9c0-0.4,0.3-0.7,0.7-0.7c0.4,0,0.7,0.3,0.7,0.7v36.9
			C1070.8,736.8,1070.5,737.1,1070.1,737.1"/>
	</g>
	<g>
		<polygon fill="#FF3615" points="1109.6,718.9 1106.1,712.9 1109.4,712.9 1100.1,657.7 1090.7,712.9 1094,712.9 1090.6,718.9 		"/>
		<path fill="#FF3615" d="M1110.7,719.5h-21.3l3.4-6h-2.9l10.2-59.9l10.2,59.9h-2.9L1110.7,719.5z M1091.8,718.2h16.6l-3.4-6h3.7
			l-8.6-50.4l-8.5,50.4h3.7L1091.8,718.2z"/>
		<path fill="#FF3615" d="M1100.1,737.6c-0.4,0-0.7-0.3-0.7-0.7V700c0-0.4,0.3-0.7,0.7-0.7c0.4,0,0.7,0.3,0.7,0.7v36.9
			C1100.8,737.3,1100.5,737.6,1100.1,737.6"/>
	</g>
</g>
</svg>
